<svg version="1.1" id="icon-accordion" xmlns="http://www.w3.org/2000/svg" xmlns:xlink="http://www.w3.org/1999/xlink" x="0px" y="0px"
	 viewBox="0 0 1000 1000" style="enable-background:new 0 0 1000 1000;" xml:space="preserve">
<g>
	<path d="M1000,277V0H1v187H0v627h1v187h999V724h-1V277H1000z M91,90h819v97H91V90z M910,911H91v-97h819V911z M909,724H90V277h819
		V724z"/>
	<path d="M167,414h432c24.9,0,45-20.1,45-45s-20.1-45-45-45H167c-24.9,0-45,20.1-45,45S142.1,414,167,414z"/>
	<path d="M167,545h602c24.9,0,45-20.1,45-45s-20.1-45-45-45H167c-24.9,0-45,20.1-45,45S142.1,545,167,545z"/>
	<path d="M167,676h234c24.9,0,45-20.1,45-45s-20.1-45-45-45H167c-24.9,0-45,20.1-45,45S142.1,676,167,676z"/>
</g>
</svg>
