<svg id="icon-ggmaps" x="0px" y="0px" viewBox="0 0 1000 1000" style="enable-background:new 0 0 1000 1000;">
	<path d="M708.3,270.6c0,94.8-126.9,263.7-182.6,331.7c-13.4,18.2-38,18.2-51.4,0c-55.7-68-182.6-236.9-182.6-331.7
	c0-115,93.2-208.3,208.3-208.3S708.3,155.6,708.3,270.6z M500,326.2c38.4,0,69.4-31.1,69.4-69.4s-31.1-69.4-69.4-69.4
	s-69.4,31.1-69.4,69.4C430.6,295.1,461.6,326.2,500,326.2z M738.8,374.4c0.9-2.1,1.7-4.2,2.6-6.4l201.3-80.5
	c27.4-10.9,57.1,9.2,57.1,38.7v470c0,17-10.4,32.3-26.2,38.7L722.2,935.4V410.2C728.2,398.2,733.8,386.4,738.8,374.4z M261.2,374.4
	c5,12,10.6,23.8,16.7,35.8v436.4L57.2,934.9c-27.4,9.4-57.1-9.2-57.1-38.7v-470c0-17,10.4-33.8,26.2-38.7l212.6-85.1
	C243.1,327,251.6,351.5,261.2,374.4L261.2,374.4z M569.1,637c24.1-28.6,62-77.8,97.5-132.1v432.7l-333.3-95.3V504.9
	c35.6,54.3,73.4,103.4,97.5,132.1C466.5,683,533.5,683,569.1,637L569.1,637z"/>
</svg>
