<?xml version="1.0" encoding="utf-8"?>
<!-- Generator: Adobe Illustrator 26.1.0, SVG Export Plug-In . SVG Version: 6.00 Build 0)  -->
<svg version="1.1" id="icon-header" xmlns="http://www.w3.org/2000/svg" xmlns:xlink="http://www.w3.org/1999/xlink" x="0px"
	 y="0px" viewBox="0 0 1000 1000" style="enable-background:new 0 0 1000 1000;" xml:space="preserve">
<path d="M130.9,965.6c-9.8,0-17.7-3.1-23.9-9.4c-6.2-6.2-9.4-14.1-9.4-23.9V67.7c0-9.8,3.1-17.7,9.4-23.9c6.2-6.2,14.1-9.4,23.9-9.4
	h171.6c9.8,0,17.9,3.1,24.5,9.4c6.7,6.2,10,14.1,10,23.9v320.6h327.3V67.7c0-9.8,3.1-17.7,9.4-23.9s14.1-9.4,23.9-9.4h171.6
	c9.8,0,17.7,3.1,23.9,9.4s9.4,14.1,9.4,23.9v864.6c0,8.9-3.1,16.6-9.4,23.3c-6.2,6.7-14.1,10-23.9,10H697.5c-9.8,0-17.7-3.3-23.9-10
	c-6.2-6.7-9.4-14.3-9.4-23.3V601.1H337v331.3c0,8.9-3.3,16.6-10,23.3c-6.7,6.7-14.8,10-24.5,10L130.9,965.6L130.9,965.6z"/>
</svg>
