<svg version="1.1" id="icon-highlight" xmlns="http://www.w3.org/2000/svg" xmlns:xlink="http://www.w3.org/1999/xlink" x="0px" y="0px"
	 viewBox="0 0 1000 1000" style="enable-background:new 0 0 1000 1000;" xml:space="preserve">
<path d="M660.5,90c33.7,0,66.4,6.6,97.1,19.6c29.7,12.6,56.4,30.6,79.3,53.5c22.9,22.9,40.9,49.6,53.5,79.3
	c13,30.7,19.6,63.4,19.6,97.1s-6.6,66.4-19.6,97.1c-12.6,29.7-30.6,56.4-53.5,79.3c-22.9,22.9-49.6,40.9-79.3,53.5
	c-30.7,13-63.4,19.6-97.1,19.6s-66.4-6.6-97.1-19.6c-29.7-12.6-56.4-30.6-79.3-53.5c-22.9-22.9-40.9-49.6-53.5-79.3
	c-13-30.7-19.6-63.4-19.6-97.1s6.6-66.4,19.6-97.1c12.6-29.7,30.6-56.4,53.5-79.3s49.6-40.9,79.3-53.5C594.1,96.6,626.8,90,660.5,90
	 M660.5,0C473,0,321,152,321,339.5S473,679,660.5,679S1000,527,1000,339.5S848,0,660.5,0L660.5,0z"/>
<g>
	<line class="st0" x1="660.5" y1="229.8" x2="660.5" y2="450.7"/>
	<path d="M660.5,495.7c-24.9,0-45-20.1-45-45V229.8c0-24.9,20.1-45,45-45s45,20.1,45,45v220.9C705.5,475.5,685.4,495.7,660.5,495.7z
		"/>
</g>
<g>
	<line class="st0" x1="771.7" y1="341" x2="550.8" y2="341"/>
	<path d="M771.7,386H550.8c-24.9,0-45-20.1-45-45s20.1-45,45-45h220.9c24.9,0,45,20.1,45,45S796.5,386,771.7,386z"/>
</g>
<g>
	<path d="M660.5,679C473,679,321,527,321,339.5c0-80.4,28-154.3,74.7-212.5H1v873h873V603.5C815.7,650.7,741.4,679,660.5,679z"/>
</g>
</svg>
