<svg id="icon-html" xmlns="http://www.w3.org/2000/svg" xmlns:xlink="http://www.w3.org/1999/xlink" x="0px" y="0px"
	 viewBox="0 0 1000 1000" style="enable-background:new 0 0 1000 1000;" xml:space="preserve">
<g>
	<path d="M269.2,728.1c-1.3,0-3-0.4-5-1.3c-2-0.9-4.1-1.8-6.3-2.7L19.2,561.7C13,557.3,8.3,552.9,5,548.7c-3.3-4.2-5-9.6-5-16.2
		v-20.6c0-6.6,1.7-11.9,5-15.9c3.3-4,8.1-8.2,14.3-12.6L258,321c2.2-1.3,4.3-2.4,6.3-3.3c2-0.9,3.6-1.3,5-1.3c4,0,7.3,1.2,9.9,3.6
		c2.7,2.4,4,5.9,4,10.3v71c0,7.1-2,12.5-6,16.2c-4,3.8-8.2,7.2-12.6,10.3L120,522.5l144.6,94.8c4.4,3.1,8.6,6.4,12.6,9.9
		c4,3.5,6,8.8,6,15.9v71.6c0,4-1.3,7.2-4,9.6C276.5,726.9,273.2,728.1,269.2,728.1z"/>
	<path d="M352.8,788.5c-4,0-7.4-1.4-10.3-4.3c-2.9-2.9-4.3-6.1-4.3-9.6c0-2.2,0.7-4.4,2-6.6l224.1-540.5c1.8-3.5,4.4-7.1,8-10.6
		c3.5-3.5,8.8-5.3,15.9-5.3h59.7c4,0,7.3,1.4,9.9,4.3c2.7,2.9,4,6.1,4,9.6c0,1.8-0.4,4-1.3,6.6L435,772.5c-1.3,3.1-3.9,6.5-7.6,10.3
		c-3.8,3.8-9.2,5.6-16.2,5.6H352.8z"/>
	<path d="M730.1,728.1c-3.5,0-6.6-1.2-9.3-3.6c-2.7-2.4-4-5.6-4-9.6v-71.6c0-7.1,2-12.4,6-15.9c4-3.5,8.2-6.6,12.6-9.3l143.9-95.5
		l-143.9-94.8c-4.4-2.7-8.6-6-12.6-9.9c-4-4-6-9.3-6-15.9v-71.6c0-4,1.3-7.3,4-9.9c2.7-2.7,5.7-4,9.3-4c1.8,0,3.6,0.4,5.6,1.3
		c2,0.9,3.9,2,5.6,3.3l239.4,162.5c6.6,4.4,11.5,8.6,14.6,12.6c3.1,4,4.6,9.5,4.6,16.6v19.9c0,6.6-1.6,12.1-4.6,16.2
		c-3.1,4.2-8,8.5-14.6,12.9L741.4,724.1c-1.8,0.9-3.6,1.8-5.6,2.7C733.8,727.7,731.9,728.1,730.1,728.1z"/>
</g>
</svg>
