<svg id="icon-pagetitle" xmlns="http://www.w3.org/2000/svg" xmlns:xlink="http://www.w3.org/1999/xlink" x="0px" y="0px"
	 viewBox="0 0 1000 1000" style="enable-background:new 0 0 1000 1000;" xml:space="preserve">
<g>
	<path d="M22.7,816.1c-6.6,0-12.1-2.1-16.3-6.3c-4.2-4.2-6.3-9.6-6.3-16.3v-587c0-6.6,2.1-12,6.3-16.3c4.2-4.2,9.6-6.3,16.3-6.3
		h116.5c6.6,0,12.2,2.1,16.7,6.3c4.5,4.2,6.8,9.6,6.8,16.3v217.7h222.2V206.5c0-6.6,2.1-12,6.3-16.3c4.2-4.2,9.6-6.3,16.3-6.3h116.5
		c6.6,0,12,2.1,16.3,6.3c4.2,4.2,6.3,9.6,6.3,16.3v587c0,6-2.1,11.3-6.3,15.8c-4.2,4.5-9.6,6.8-16.3,6.8H407.4
		c-6.6,0-12.1-2.3-16.3-6.8c-4.2-4.5-6.3-9.8-6.3-15.8V568.6H162.7v224.9c0,6-2.3,11.3-6.8,15.8c-4.5,4.5-10.1,6.8-16.7,6.8H22.7z"
		/>
	<path d="M859.9,816.1c-6,0-11.3-2.3-15.8-6.8c-4.5-4.5-6.8-9.8-6.8-15.8V363.6l-123.7,94.8c-5.4,4.2-11,5.7-16.7,4.5
		c-5.7-1.2-10.7-4.5-14.9-9.9l-53.3-69.5c-3.6-5.4-5-11.3-4.1-17.6S629,354.6,635,351l207.7-160.8c3.6-2.4,7.1-4.1,10.4-5
		c3.3-0.9,7.1-1.4,11.3-1.4h112.9c6.6,0,12,2.1,16.3,6.3c4.2,4.2,6.3,9.6,6.3,16.3v587c0,6-2.1,11.3-6.3,15.8
		c-4.2,4.5-9.6,6.8-16.3,6.8H859.9z"/>
</g>
</svg>
