<svg version="1.1" id="icon-popup" xmlns="http://www.w3.org/2000/svg" xmlns:xlink="http://www.w3.org/1999/xlink" x="0px" y="0px"
	 viewBox="0 0 1000 1000" style="enable-background:new 0 0 1000 1000;" xml:space="preserve">
<g>
	<path d="M44,955V499.5c0-61.5,12-121.2,35.8-177.3c22.9-54.2,55.8-103,97.6-144.8c41.8-41.8,90.6-74.7,144.8-97.6
		C378.3,56,438,44,499.5,44s121.2,12,177.3,35.8c54.2,22.9,103,55.8,144.8,97.6c41.8,41.8,74.7,90.6,97.6,144.8
		C943,378.3,955,438,955,499.5s-12,121.2-35.8,177.3c-22.9,54.2-55.8,103-97.6,144.8s-90.6,74.7-144.8,97.6
		C620.7,943,561,955,499.5,955H44z M412.8,793.7c12.2,12.2,28.5,19,45.9,19h77.1c17.9,0,34.5-6.7,46.7-19c12.2-12.2,19-28.5,19-45.9
		v-77.1c0-17.2-6.2-33.2-17.6-45.3c7.8-10.9,11.8-23.9,11.8-38.4V207.3c0-17-6-32.4-17.4-44.7l-0.1-0.1
		c-12.1-13-28.9-20.1-47.4-20.1h-67.1c-17.4,0-33.7,6.7-45.9,19c-12.2,12.2-19,28.6-19,45.9v379.7c0,14.4,4.3,27.8,12.4,38.7
		c-11.2,12-17.3,27.9-17.3,45v77.1C393.8,765.1,400.5,781.4,412.8,793.7z"/>
	<path d="M499.5,89c55.5,0,109.2,10.8,159.8,32.2c48.9,20.7,92.8,50.3,130.5,88c37.7,37.7,67.3,81.6,88,130.5
		C899.2,390.3,910,444,910,499.5s-10.8,109.2-32.2,159.8c-20.7,48.9-50.3,92.8-88,130.5c-37.7,37.7-81.6,67.3-130.5,88
		C608.7,899.2,555,910,499.5,910H89V499.5c0-55.5,10.8-109.2,32.2-159.8c20.7-48.9,50.3-92.8,88-130.5c37.7-37.7,81.6-67.3,130.5-88
		C390.3,99.8,444,89,499.5,89 M359.4,622.6c-7,14.7-10.7,31.1-10.7,48.1v77.1c0,29.4,11.4,57,32.2,77.7
		c20.7,20.7,48.3,32.2,77.7,32.2h77.1c29.9,0,57.8-11.4,78.6-32.2c20.7-20.7,32.2-48.3,32.2-77.7v-77.1c0-17.4-3.8-34-11.1-49
		c3.5-11,5.3-22.7,5.3-34.7V207.3c0-28.1-10.4-54.8-29.4-75.3l-0.1-0.1l-0.1-0.1c-20.7-22.2-49.2-34.4-80.3-34.4h-67.1
		c-29.4,0-57,11.4-77.7,32.2c-20.7,20.7-32.2,48.3-32.2,77.7v379.7C353.8,599.3,355.7,611.3,359.4,622.6 M499.5-1
		C223.1-1-1,223.1-1,499.5C-1,648.6-1,1000-1,1000s373.2,0,500.5,0c276.4,0,500.5-224.1,500.5-500.5S775.9-1,499.5-1L499.5-1z
		 M463.6,606.8c-5.5,0-10.2-1.8-14.1-5.4c-3.9-3.6-5.8-8.4-5.8-14.5V207.3c0-5.5,1.9-10.2,5.8-14.1c3.9-3.9,8.6-5.8,14.1-5.8h67.1
		c6.1,0,10.9,1.9,14.5,5.8c3.6,3.9,5.4,8.6,5.4,14.1v379.7c0,6.1-1.8,10.9-5.4,14.5c-3.6,3.6-8.4,5.4-14.5,5.4H463.6L463.6,606.8z
		 M458.7,767.7c-5.5,0-10.2-1.9-14.1-5.8c-3.9-3.9-5.8-8.6-5.8-14.1v-77.1c0-6.1,1.9-11,5.8-14.9c3.9-3.9,8.6-5.8,14.1-5.8h77.1
		c6.1,0,11,1.9,14.9,5.8c3.9,3.9,5.8,8.8,5.8,14.9v77.1c0,5.5-1.9,10.2-5.8,14.1c-3.9,3.9-8.8,5.8-14.9,5.8H458.7L458.7,767.7z"/>
</g>
</svg>
