<svg version="1.1" id="icon-richtext" xmlns="http://www.w3.org/2000/svg" xmlns:xlink="http://www.w3.org/1999/xlink" x="0px"
	 y="0px" viewBox="0 0 319 319" style="enable-background:new 0 0 319 319;" xml:space="preserve">
	<polygon  points="52,67.4 16.6,67.4 16.6,0 0,0 0,80.7 52,80.7 	"/>
	<path  d="M86.4,81.8c8.7,0,15.5-2.8,20.7-8.3c5.1-5.6,7.7-12.9,7.7-22.2l-0.1-4.1c-0.6-8.5-3.4-15.2-8.6-20.2
		c-5.1-5-11.7-7.4-19.8-7.4c-5.7,0-10.7,1.3-15,3.8c-4.3,2.6-7.6,6.2-9.9,10.8c-2.3,4.7-3.4,10-3.4,15.9v0.7
		c0,9.5,2.6,17.1,7.7,22.6C70.8,79.1,77.7,81.8,86.4,81.8z M77.2,37.1c2.1-3.1,5.2-4.6,9.1-4.6c4,0,7,1.5,9.2,4.6
		c2.2,3.1,3.3,7.4,3.3,13c0,6.6-1.1,11.3-3.3,14.3c-2.2,3-5.2,4.5-9.1,4.5c-4,0-7.1-1.5-9.2-4.5C75,61.4,74,57,74,51.3
		C74,44.9,75,40.2,77.2,37.1z"/>
	<path  d="M140.7,41.5c1.9-4.1,5.9-6.2,11.9-6.2c1.7,0,3.6,0.1,5.8,0.4l0.2-15.4c-1.6-0.5-3.2-0.7-5-0.7
		c-5.7,0-10.1,2.8-13.4,8.3l-0.4-7.2h-15.1v60h16V41.5z"/>
	<path  d="M192.6,81.8c5,0,9.5-1,13.6-2.9c4.1-1.9,7.4-4.6,9.8-8l-7.9-8.8c-3.5,4.5-8.3,6.7-14.5,6.7
		c-4,0-7.3-1.2-9.9-3.5c-2.6-2.4-4.2-5.5-4.7-9.4h38.2v-6.5c0-9.5-2.4-16.8-7.1-22c-4.7-5.2-11.2-7.8-19.4-7.8
		c-5.5,0-10.3,1.3-14.6,3.9c-4.3,2.6-7.6,6.2-9.9,11c-2.3,4.8-3.5,10.1-3.5,16.2v1.6c0,9,2.8,16.2,8.3,21.6
		C176.7,79.2,183.8,81.8,192.6,81.8z M183.1,35.8c2-2.2,4.6-3.2,7.7-3.2c3.4,0,6,1,7.9,2.9c1.8,1.9,2.8,4.7,2.9,8.3V45h-22.3
		C179.8,41,181.1,37.9,183.1,35.8z"/>
	<path  d="M307.7,25.3c-3.2-3.8-8-5.7-14.5-5.7c-7.8,0-13.8,3-18,9.2c-2.9-6.1-8.2-9.2-15.9-9.2c-7.2,0-13,2.6-17.2,7.8
		l-0.5-6.7h-15v60h16V38.3c2-3.8,5.3-5.7,9.9-5.7c3.3,0,5.6,0.8,7,2.3c1.4,1.6,2.1,4.1,2.1,7.5v38.2h16l-0.1-41.2
		c1.8-4.6,5.2-6.9,10-6.9c3.4,0,5.7,0.8,7,2.4c1.3,1.6,2,4.1,2,7.5v38.3h16.1V42.4C312.4,34.8,310.8,29.1,307.7,25.3z"/>
	<path  d="M28.7,277.1c-1.2-1.1-2.8-2-4.7-2.7c-1.9-0.6-4.3-0.9-7-0.9c-2.7,0-4.9,0.3-6.8,0.9c-1.9,0.6-3.4,1.4-4.6,2.4
		c-1.2,1-2.1,2-2.6,2.9c-0.6,1-0.9,1.9-0.9,2.6c0,0.4,0.1,0.7,0.3,1c0.3,0.3,0.6,0.4,1.1,0.4h7.1c0.7,0,1.2-0.3,1.6-0.8
		c0.4-0.8,1-1.4,1.7-1.9c0.7-0.5,1.7-0.7,2.9-0.7c1.7,0,2.8,0.4,3.5,1.2c0.6,0.8,0.9,2,0.9,3.5v0.9l-7.9,1.2c-4,0.6-7.3,1.8-9.7,3.6
		c-2.4,1.7-3.7,4.1-3.7,7.1c0,1.9,0.5,3.5,1.6,5c1.1,1.5,2.5,2.6,4.3,3.5c1.8,0.9,3.8,1.3,6.1,1.3c1.6,0,3.1-0.2,4.3-0.6
		c1.2-0.4,2.3-0.9,3.3-1.6c0.9-0.7,1.7-1.4,2.2-2.2v2.2c0,0.4,0.1,0.8,0.4,1.1c0.3,0.3,0.7,0.5,1.1,0.5h7.3c0.4,0,0.8-0.2,1.1-0.5
		s0.5-0.7,0.5-1.1v-19.2c0-1.9-0.3-3.6-0.9-5.1C30.8,279.5,29.9,278.2,28.7,277.1z M21.4,292.9c0,1.7-0.3,3.1-0.9,4.2
		c-0.6,1.1-1.4,1.9-2.3,2.5c-1,0.5-2.1,0.8-3.3,0.8c-0.8,0-1.5-0.1-2.2-0.4c-0.7-0.3-1.3-0.7-1.7-1.2c-0.4-0.5-0.6-1.1-0.6-1.8
		c0-0.9,0.5-1.7,1.4-2.4c0.9-0.7,2.4-1.2,4.3-1.5l5.4-0.9V292.9z"/>
	<path  d="M50.8,283.3c0.9-1.1,2.2-1.6,3.9-1.6c1.2,0,2.2,0.3,3,0.8c0.8,0.5,1.4,1.5,1.9,2.8c0.2,0.4,0.4,0.7,0.7,0.9
		c0.3,0.2,0.6,0.3,1.1,0.3h8c0.4,0,0.8-0.2,1.1-0.5c0.3-0.3,0.5-0.7,0.4-1.1c0-1-0.4-2.1-1-3.4c-0.7-1.3-1.6-2.5-2.9-3.8
		c-1.3-1.2-3-2.2-5.1-3.1c-2.1-0.8-4.6-1.2-7.5-1.2c-3.1,0-5.9,0.6-8.3,1.7c-2.4,1.1-4.3,2.8-5.7,5c-1.4,2.2-2.2,4.8-2.3,7.9
		c0,0.7-0.1,1.5-0.1,2.6s0,1.9,0.1,2.6c0.1,3,0.9,5.6,2.3,7.8c1.4,2.2,3.3,3.8,5.7,5c2.4,1.1,5.2,1.7,8.3,1.7c2.4,0,4.5-0.3,6.3-0.9
		c1.8-0.6,3.4-1.3,4.6-2.2c1.3-0.9,2.3-1.9,3.1-2.9c0.8-1.1,1.4-2.1,1.8-3c0.4-1,0.6-1.8,0.6-2.5c0-0.5-0.1-0.8-0.4-1.1
		c-0.3-0.3-0.7-0.4-1.1-0.4h-8c-0.5,0-0.8,0.1-1.1,0.3c-0.3,0.2-0.5,0.5-0.7,0.9c-0.5,1.3-1.1,2.2-1.8,2.8c-0.8,0.6-1.8,0.9-3.1,0.9
		c-1.7,0-3-0.5-3.9-1.6c-0.9-1.1-1.4-2.7-1.5-5.1c0-1.3,0-2.8,0-4.5C49.4,286,49.9,284.4,50.8,283.3z"/>
	<path  d="M122.7,281.9c-0.6-1.8-1.5-3.4-2.7-4.6c-1.2-1.3-2.5-2.2-4.1-2.9c-1.6-0.7-3.5-1-5.6-1c-2.3,0-4.3,0.4-5.9,1.3
		c-1.6,0.9-2.9,1.9-3.9,3.2v-2.3c0-0.5-0.2-0.8-0.5-1.1c-0.3-0.3-0.7-0.4-1.1-0.4h-7.1c-0.5,0-0.8,0.1-1.1,0.4
		c-0.3,0.3-0.4,0.7-0.4,1.1v41.7c0,0.4,0.1,0.8,0.4,1.1c0.3,0.3,0.7,0.5,1.1,0.5h7.7c0.5,0,0.8-0.2,1.1-0.5c0.3-0.3,0.4-0.7,0.4-1.1
		v-14c1,1.4,2.3,2.4,3.8,3.1c1.5,0.7,3.3,1.1,5.4,1.1c2.1,0,4-0.3,5.6-1c1.6-0.7,3-1.7,4.1-2.9c1.1-1.3,2-2.8,2.7-4.6
		c0.6-1.8,1-3.9,1.1-6.1c0-0.8,0.1-1.6,0.1-2.3c0-0.7,0-1.5-0.1-2.3C123.7,285.8,123.3,283.8,122.7,281.9z M112.6,292.5
		c-0.1,1.2-0.3,2.3-0.7,3.4c-0.4,1-0.9,1.8-1.7,2.4c-0.8,0.6-1.9,0.9-3.4,0.9c-1.3,0-2.4-0.3-3.2-0.9c-0.8-0.6-1.5-1.3-1.9-2.2
		c-0.4-0.9-0.7-1.9-0.7-2.9c0-0.8-0.1-1.6-0.1-2.4c0-0.8,0-1.5,0.1-2.3c0.1-1.1,0.3-2.2,0.7-3.2c0.4-1,1-1.8,1.8-2.4
		c0.8-0.6,1.9-0.9,3.3-0.9c1.4,0,2.6,0.3,3.4,0.9c0.8,0.6,1.4,1.4,1.7,2.4c0.4,1,0.6,2.1,0.7,3.4
		C112.7,289.9,112.7,291.2,112.6,292.5z"/>
	<path  d="M160.1,280c-1.4-2.1-3.2-3.7-5.7-4.9c-2.4-1.1-5.4-1.7-8.8-1.7c-3.4,0-6.3,0.6-8.8,1.7
		c-2.4,1.1-4.3,2.8-5.7,4.9c-1.4,2.1-2.1,4.7-2.3,7.7c0,0.8-0.1,1.7-0.1,2.8s0,2,0.1,2.9c0.2,3,0.9,5.5,2.2,7.6
		c1.3,2.1,3.1,3.8,5.6,4.9c2.4,1.1,5.4,1.7,8.9,1.7c3.6,0,6.6-0.6,9-1.7c2.4-1.1,4.3-2.8,5.6-4.9c1.3-2.1,2-4.7,2.2-7.6
		c0-0.8,0.1-1.8,0.1-2.9s0-2-0.1-2.8C162.2,284.7,161.5,282.1,160.1,280z M151.3,293.1c-0.1,2.3-0.6,4-1.5,5.1
		c-0.9,1.1-2.2,1.7-4.1,1.7c-1.8,0-3.2-0.6-4.1-1.7c-0.9-1.1-1.4-2.8-1.5-5.1c0-0.6-0.1-1.5-0.1-2.5c0-1.1,0-1.9,0.1-2.5
		c0.1-2.2,0.6-3.9,1.5-5.1c0.9-1.2,2.3-1.7,4.1-1.7c1.9,0,3.3,0.6,4.1,1.7c0.9,1.2,1.4,2.9,1.5,5.1c0,0.6,0.1,1.5,0.1,2.5
		C151.3,291.6,151.3,292.4,151.3,293.1z"/>
	<path  d="M193.3,289.4c-1.7-1-4-1.8-7-2.2c-2.4-0.5-4.1-0.9-5.2-1.3c-1.1-0.4-1.9-0.8-2.2-1.3c-0.4-0.5-0.5-1-0.5-1.5
		c0-0.8,0.3-1.5,0.9-2c0.6-0.5,1.5-0.8,2.7-0.8c1,0,1.9,0.2,2.5,0.5c0.7,0.3,1.3,0.7,1.8,1.1c0.5,0.4,1,0.8,1.5,1
		c0.1,0.1,0.3,0.2,0.4,0.2c0.2,0.1,0.3,0.1,0.5,0.1h6.6c0.4,0,0.7-0.2,1-0.5c0.3-0.3,0.4-0.7,0.4-1.1c0-0.8-0.4-1.6-1-2.5
		c-0.6-0.9-1.6-1.8-2.8-2.7c-1.2-0.9-2.7-1.6-4.6-2.2c-1.8-0.6-3.9-0.9-6.3-0.9c-3.1,0-5.7,0.5-7.8,1.5c-2.1,1-3.7,2.3-4.8,3.8
		c-1.1,1.6-1.6,3.2-1.6,4.9c0,1.9,0.4,3.5,1.3,4.8c0.9,1.3,2.2,2.4,3.8,3.2s3.6,1.5,5.8,2c2.3,0.4,4.1,0.8,5.2,1.3
		c1.2,0.4,1.9,0.9,2.3,1.3c0.4,0.4,0.6,1,0.6,1.7c0,0.9-0.4,1.6-1.2,2.1c-0.8,0.5-1.8,0.7-3,0.7c-1,0-1.9-0.2-2.6-0.5
		c-0.7-0.3-1.3-0.7-1.9-1.2c-0.5-0.4-1.1-0.8-1.6-1.1c-0.1-0.1-0.2-0.2-0.3-0.3c-0.1,0-0.2-0.1-0.3-0.1h-7.2c-0.4,0-0.7,0.1-1.1,0.4
		c-0.3,0.3-0.5,0.7-0.4,1.1c0,0.7,0.4,1.5,0.9,2.5c0.6,0.9,1.5,1.9,2.7,2.8c1.2,0.9,2.8,1.6,4.7,2.2c1.9,0.6,4.2,0.9,7,0.9
		c3.4,0,6.3-0.4,8.6-1.3c2.3-0.9,4.1-2.1,5.3-3.6c1.2-1.6,1.8-3.4,1.8-5.4c0-1.5-0.4-3-1.1-4.3C196.2,291.6,195,290.4,193.3,289.4z"
		/>
	<path  d="M235.2,274.1h-7.9c-0.5,0-0.8,0.1-1.1,0.4c-0.3,0.3-0.4,0.7-0.4,1.1v17.3c0,2-0.5,3.5-1.5,4.6
		c-1,1.1-2.4,1.6-4.1,1.6c-3.7,0-5.5-2.1-5.5-6.2v-17.3c0-0.5-0.2-0.8-0.5-1.1c-0.3-0.3-0.7-0.4-1.2-0.4H205c-0.5,0-0.8,0.1-1.1,0.4
		c-0.3,0.3-0.4,0.7-0.4,1.1v17.6c0,3.1,0.5,5.7,1.6,7.8c1.1,2.1,2.5,3.7,4.4,4.8c1.9,1.1,4,1.6,6.4,1.6c2.4,0,4.5-0.4,6.2-1.2
		c1.7-0.8,3.2-1.9,4.3-3.4v2.4c0,0.4,0.2,0.8,0.5,1.1s0.7,0.5,1.1,0.5h7.3c0.5,0,0.8-0.2,1.1-0.5c0.3-0.3,0.4-0.7,0.4-1.1v-29.7
		c0-0.5-0.1-0.8-0.4-1.1C236.1,274.2,235.7,274.1,235.2,274.1z"/>
	<path  d="M268.6,275.7c-2.4-1.5-5.5-2.2-9.2-2.2c-3.2,0-6.1,0.6-8.5,1.9c-2.4,1.2-4.3,3.1-5.7,5.4
		c-1.4,2.4-2.1,5.2-2.2,8.6c0,0.3,0,0.6,0,1.1c0,0.5,0,0.8,0,1.1c0.1,5.3,1.7,9.3,4.6,12c3,2.7,6.9,4,11.9,4c2.6,0,4.8-0.3,6.8-0.9
		c1.9-0.6,3.6-1.4,4.8-2.4c1.3-1,2.3-2,2.9-3c0.7-1,1-1.9,1.1-2.6c0-0.4-0.1-0.8-0.3-1c-0.3-0.3-0.6-0.4-1-0.4h-7.8
		c-0.5,0-0.9,0.1-1.1,0.2c-0.2,0.1-0.5,0.4-0.9,0.9c-0.2,0.3-0.5,0.6-0.9,0.9c-0.4,0.4-0.9,0.7-1.4,0.9c-0.6,0.3-1.3,0.4-2.1,0.4
		c-1.1,0-2.1-0.3-2.9-0.9c-0.8-0.6-1.4-1.4-1.8-2.4c-0.4-1-0.6-2.1-0.7-3.4c0-0.1,0-0.2,0-0.3c0-0.1,0-0.1,0-0.2h20.2
		c0.5,0,0.8-0.1,1.1-0.4c0.3-0.3,0.4-0.7,0.4-1.1v-1.5c0-3.2-0.6-6.1-1.8-8.7C272.8,279.2,271,277.2,268.6,275.7z M264.7,287.2
		h-10.7v-0.1c0-1.4,0.2-2.6,0.6-3.6c0.4-1,1-1.8,1.8-2.3c0.8-0.5,1.7-0.8,2.8-0.8c1.1,0,2.1,0.3,2.9,0.8c0.8,0.5,1.4,1.3,1.8,2.3
		c0.4,1,0.6,2.2,0.6,3.6V287.2z"/>
	<path  d="M304.5,274.1h-2.8c-2,0-3.8,0.4-5.3,1.1c-1.6,0.7-2.9,1.7-4,3v-2.5c0-0.4-0.2-0.8-0.5-1.1
		c-0.3-0.3-0.7-0.5-1.2-0.5h-7.3c-0.5,0-0.8,0.2-1.1,0.5s-0.4,0.7-0.4,1.1v29.7c0,0.4,0.1,0.8,0.4,1.1s0.7,0.5,1.1,0.5h7.8
		c0.5,0,0.9-0.2,1.2-0.5c0.3-0.3,0.5-0.7,0.5-1.1v-16.2c0-1.7,0.5-3.1,1.4-4c0.9-0.9,2.3-1.4,4-1.4h6.1c0.5,0,0.8-0.2,1.1-0.5
		c0.3-0.3,0.4-0.7,0.4-1.1v-6.5c0-0.5-0.1-0.8-0.4-1.1C305.3,274.2,304.9,274.1,304.5,274.1z"/>
	<path  d="M29.6,199.1c-1.9-1.1-4-1.6-6.5-1.6c-2.4,0-4.5,0.4-6.3,1.3c-1.8,0.9-3.2,2-4.2,3.3v-2.4
		c0-0.5-0.2-0.8-0.5-1.1c-0.3-0.3-0.7-0.4-1.2-0.4H3.7c-0.5,0-0.8,0.1-1.1,0.4c-0.3,0.3-0.4,0.7-0.4,1.1v29.7c0,0.4,0.1,0.8,0.4,1.1
		c0.3,0.3,0.7,0.5,1.1,0.5h7.9c0.4,0,0.8-0.2,1.1-0.5s0.5-0.7,0.5-1.1v-17.3c0-2,0.5-3.5,1.5-4.6c1-1.1,2.4-1.6,4.1-1.6
		c1.9,0,3.3,0.5,4.2,1.6c0.9,1.1,1.4,2.6,1.4,4.6v17.3c0,0.4,0.2,0.8,0.5,1.1s0.7,0.5,1.1,0.5h8c0.5,0,0.8-0.2,1.1-0.5
		c0.3-0.3,0.4-0.7,0.4-1.1v-17.6c0-3.1-0.5-5.7-1.6-7.8C32.9,201.8,31.4,200.2,29.6,199.1z"/>
	<path  d="M51.8,198.1h-7.5c-0.5,0-0.8,0.1-1.1,0.4c-0.3,0.3-0.4,0.7-0.4,1.1v29.7c0,0.4,0.1,0.8,0.4,1.1
		c0.3,0.3,0.7,0.5,1.1,0.5h7.5c0.5,0,0.8-0.2,1.1-0.5c0.3-0.3,0.4-0.7,0.4-1.1v-29.7c0-0.5-0.1-0.8-0.4-1.1
		C52.6,198.2,52.3,198.1,51.8,198.1z"/>
	<path  d="M53.4,186.1c0-0.4-0.2-0.8-0.5-1.1s-0.7-0.5-1.1-0.5h-7.6c-0.5,0-0.8,0.2-1.1,0.5c-0.3,0.3-0.4,0.7-0.4,1.1
		v5.7c0,0.5,0.1,0.8,0.4,1.1c0.3,0.3,0.7,0.4,1.1,0.4h7.6c0.4,0,0.8-0.1,1.1-0.4c0.3-0.3,0.5-0.7,0.5-1.1V186.1z"/>
	<path  d="M93.4,223c0.6-1.8,1-3.9,1.1-6.3c0-0.8,0.1-1.6,0.1-2.2c0-0.7,0-1.4-0.1-2.2c-0.1-2.2-0.4-4.3-1.1-6.1
		c-0.6-1.8-1.5-3.4-2.7-4.7c-1.1-1.3-2.5-2.3-4.1-3c-1.6-0.7-3.5-1-5.6-1c-2.1,0-3.9,0.3-5.4,1c-1.5,0.7-2.8,1.6-3.9,2.7v-13.5
		c0-0.5-0.1-0.8-0.4-1.1c-0.3-0.3-0.7-0.4-1.1-0.4h-7.7c-0.5,0-0.8,0.1-1.1,0.4c-0.3,0.3-0.4,0.7-0.4,1.1v41.7
		c0,0.4,0.1,0.8,0.4,1.1c0.3,0.3,0.7,0.5,1.1,0.5h7.1c0.4,0,0.8-0.2,1.1-0.5s0.5-0.7,0.5-1.1v-2c1,1.2,2.3,2.2,3.9,3
		c1.6,0.8,3.6,1.2,5.9,1.2c2.1,0,4-0.3,5.6-1c1.6-0.7,3-1.6,4.1-2.9C91.8,226.4,92.7,224.9,93.4,223z M83.3,216.5
		c-0.1,1.2-0.3,2.3-0.7,3.4c-0.4,1-0.9,1.8-1.7,2.4c-0.8,0.6-1.9,0.9-3.4,0.9c-1.4,0-2.4-0.3-3.3-0.9c-0.8-0.6-1.5-1.4-1.8-2.4
		c-0.4-1-0.6-2-0.7-3.2c0-0.8-0.1-1.6-0.1-2.4c0-0.8,0-1.5,0.1-2.3c0-1.1,0.3-2,0.7-2.9c0.4-0.9,1.1-1.6,1.9-2.2
		c0.8-0.6,1.9-0.9,3.2-0.9c1.4,0,2.6,0.3,3.4,0.9c0.8,0.6,1.4,1.4,1.7,2.4c0.4,1,0.6,2.1,0.7,3.4C83.4,213.9,83.4,215.2,83.3,216.5z
		"/>
	<path  d="M134.3,230.5c0.3-0.3,0.4-0.7,0.4-1.1v-17.6c0-3.1-0.5-5.7-1.6-7.8c-1.1-2.1-2.6-3.7-4.5-4.8
		c-1.9-1.1-4.1-1.6-6.5-1.6c-2.2,0-4.1,0.4-5.8,1.2c-1.7,0.8-3.1,1.8-4.2,3.1v-14.1c0-0.5-0.1-0.8-0.4-1.1c-0.3-0.3-0.7-0.4-1.1-0.4
		h-8.1c-0.5,0-0.8,0.1-1.1,0.4c-0.3,0.3-0.4,0.7-0.4,1.1v41.7c0,0.4,0.1,0.8,0.4,1.1c0.3,0.3,0.7,0.5,1.1,0.5h8.1
		c0.5,0,0.8-0.2,1.1-0.5c0.3-0.3,0.4-0.7,0.4-1.1v-17.3c0-2,0.5-3.5,1.6-4.6c1.1-1.1,2.5-1.6,4.2-1.6c1.8,0,3.2,0.5,4.1,1.6
		c0.9,1.1,1.4,2.6,1.4,4.6v17.3c0,0.4,0.2,0.8,0.5,1.1c0.3,0.3,0.7,0.5,1.1,0.5h8.2C133.6,231,134,230.8,134.3,230.5z"/>
	<path  d="M166.7,207.3c0.9-1.1,2.2-1.6,3.9-1.6c1.2,0,2.2,0.3,3,0.8c0.8,0.5,1.4,1.5,1.9,2.8c0.2,0.4,0.4,0.7,0.7,0.9
		c0.3,0.2,0.6,0.3,1.1,0.3h8c0.4,0,0.8-0.2,1.1-0.5c0.3-0.3,0.5-0.7,0.4-1.1c0-1-0.4-2.1-1-3.4c-0.7-1.3-1.6-2.5-2.9-3.8
		c-1.3-1.2-3-2.2-5.1-3.1c-2.1-0.8-4.6-1.2-7.5-1.2c-3.1,0-5.9,0.6-8.3,1.7c-2.4,1.1-4.3,2.8-5.7,5c-1.4,2.2-2.2,4.8-2.3,7.9
		c0,0.7-0.1,1.5-0.1,2.6c0,1,0,1.9,0.1,2.6c0.1,3,0.9,5.6,2.3,7.8c1.4,2.2,3.3,3.8,5.7,5c2.4,1.1,5.2,1.7,8.3,1.7
		c2.4,0,4.5-0.3,6.3-0.9c1.8-0.6,3.4-1.3,4.6-2.2c1.3-0.9,2.3-1.9,3.1-2.9c0.8-1.1,1.4-2.1,1.8-3c0.4-1,0.6-1.8,0.6-2.5
		c0-0.5-0.1-0.8-0.4-1.1c-0.3-0.3-0.7-0.4-1.1-0.4h-8c-0.5,0-0.8,0.1-1.1,0.3c-0.3,0.2-0.5,0.5-0.7,0.9c-0.5,1.3-1.1,2.2-1.8,2.8
		c-0.8,0.6-1.8,0.9-3.1,0.9c-1.7,0-3-0.5-3.9-1.6c-0.9-1.1-1.4-2.7-1.5-5.1c0-1.3,0-2.8,0-4.5C165.3,210,165.8,208.4,166.7,207.3z"
		/>
	<path  d="M211,230.4c1.7-0.8,3.2-1.9,4.3-3.4v2.4c0,0.4,0.2,0.8,0.5,1.1c0.3,0.3,0.7,0.5,1.1,0.5h7.3
		c0.5,0,0.8-0.2,1.1-0.5c0.3-0.3,0.4-0.7,0.4-1.1v-29.7c0-0.5-0.1-0.8-0.4-1.1c-0.3-0.3-0.7-0.4-1.1-0.4h-7.9
		c-0.5,0-0.8,0.1-1.1,0.4c-0.3,0.3-0.4,0.7-0.4,1.1v17.3c0,2-0.5,3.5-1.5,4.6c-1,1.1-2.4,1.6-4.1,1.6c-3.7,0-5.5-2.1-5.5-6.2v-17.3
		c0-0.5-0.2-0.8-0.5-1.1c-0.3-0.3-0.7-0.4-1.2-0.4h-7.9c-0.5,0-0.8,0.1-1.1,0.4c-0.3,0.3-0.4,0.7-0.4,1.1v17.6
		c0,3.1,0.5,5.7,1.6,7.8c1.1,2.1,2.5,3.7,4.4,4.8c1.9,1.1,4,1.6,6.4,1.6C207.1,231.6,209.2,231.2,211,230.4z"/>
	<path  d="M243.9,229.4v-17.6c0-1.4,0.2-2.6,0.7-3.4c0.4-0.9,1-1.5,1.8-1.9c0.7-0.4,1.5-0.6,2.3-0.6
		c0.8,0,1.6,0.2,2.3,0.6c0.7,0.4,1.3,1,1.8,1.9c0.5,0.9,0.7,2,0.7,3.5v17.5c0,0.4,0.1,0.8,0.4,1.1c0.3,0.3,0.7,0.5,1.1,0.5h7.3
		c0.5,0,0.8-0.2,1.1-0.5c0.3-0.3,0.4-0.7,0.4-1.1v-17.5c0-1.5,0.2-2.6,0.7-3.5c0.4-0.9,1-1.5,1.8-1.9c0.7-0.4,1.5-0.6,2.2-0.6
		c0.9,0,1.7,0.2,2.5,0.6s1.3,1,1.7,1.9c0.4,0.9,0.6,2,0.6,3.5v17.5c0,0.4,0.2,0.8,0.5,1.1s0.7,0.5,1.2,0.5h7.3
		c0.5,0,0.8-0.2,1.1-0.5c0.3-0.3,0.4-0.7,0.4-1.1v-18c0-3.2-0.5-5.9-1.6-7.9c-1.1-2-2.5-3.6-4.2-4.6c-1.7-1-3.7-1.5-5.9-1.5
		c-2.2,0-4.1,0.5-5.9,1.5c-1.8,1-3.2,2.3-4.1,3.9c-1.8-3.8-5.2-5.6-10.1-5.4c-2.1,0-3.9,0.5-5.4,1.4c-1.5,0.9-2.7,1.9-3.5,3v-2.2
		c0-0.5-0.1-0.8-0.4-1.1c-0.3-0.3-0.7-0.4-1.1-0.4h-6.9c-0.5,0-0.8,0.1-1.1,0.4c-0.3,0.3-0.4,0.7-0.4,1.1v29.7
		c0,0.4,0.1,0.8,0.4,1.1c0.3,0.3,0.7,0.5,1.1,0.5h7.5c0.4,0,0.8-0.2,1.1-0.5C243.7,230.2,243.9,229.8,243.9,229.4z"/>
	<path  d="M13.5,131.4c0.9-1.1,2.2-1.6,3.9-1.6c1.2,0,2.2,0.3,3,0.8c0.8,0.5,1.4,1.5,1.9,2.8c0.2,0.4,0.4,0.7,0.7,0.9
		c0.3,0.2,0.6,0.3,1.1,0.3h8c0.4,0,0.8-0.2,1.1-0.5c0.3-0.3,0.5-0.7,0.4-1.1c0-1-0.4-2.1-1-3.4c-0.7-1.3-1.6-2.5-2.9-3.8
		c-1.3-1.2-3-2.2-5.1-3.1s-4.6-1.2-7.5-1.2c-3.1,0-5.9,0.6-8.3,1.7c-2.4,1.1-4.3,2.8-5.7,5c-1.4,2.2-2.2,4.8-2.3,7.9
		c0,0.7-0.1,1.5-0.1,2.6c0,1,0,1.9,0.1,2.6c0.1,3,0.9,5.6,2.3,7.8c1.4,2.2,3.3,3.8,5.7,5c2.4,1.1,5.2,1.7,8.3,1.7
		c2.4,0,4.5-0.3,6.3-0.9c1.8-0.6,3.4-1.3,4.6-2.2c1.3-0.9,2.3-1.9,3.1-2.9c0.8-1.1,1.4-2.1,1.8-3c0.4-1,0.6-1.8,0.6-2.5
		c0-0.5-0.1-0.8-0.4-1.1c-0.3-0.3-0.7-0.4-1.1-0.4h-8c-0.5,0-0.8,0.1-1.1,0.3c-0.3,0.2-0.5,0.5-0.7,0.9c-0.5,1.3-1.1,2.2-1.8,2.8
		c-0.8,0.6-1.8,0.9-3.1,0.9c-1.7,0-3-0.5-3.9-1.6c-0.9-1.1-1.4-2.7-1.5-5.1c0-1.3,0-2.8,0-4.5C12.1,134.2,12.6,132.5,13.5,131.4z"/>
	<path  d="M40.5,128.2c-1.4,2.1-2.1,4.7-2.3,7.7c0,0.8-0.1,1.7-0.1,2.8s0,2,0.1,2.9c0.2,3,0.9,5.5,2.2,7.6
		c1.3,2.1,3.1,3.8,5.6,4.9c2.4,1.1,5.4,1.7,8.9,1.7c3.6,0,6.6-0.6,9-1.7c2.4-1.1,4.3-2.8,5.6-4.9c1.3-2.1,2-4.7,2.2-7.6
		c0-0.8,0.1-1.8,0.1-2.9s0-2-0.1-2.8c-0.2-3-0.9-5.5-2.3-7.7c-1.4-2.1-3.2-3.7-5.7-4.9c-2.4-1.1-5.4-1.7-8.8-1.7
		c-3.4,0-6.3,0.6-8.8,1.7C43.8,124.5,41.9,126.1,40.5,128.2z M49.4,136.2c0.1-2.2,0.6-3.9,1.5-5.1c0.9-1.2,2.3-1.7,4.1-1.7
		c1.9,0,3.3,0.6,4.1,1.7c0.9,1.2,1.4,2.9,1.5,5.1c0,0.6,0.1,1.5,0.1,2.5c0,1.1,0,1.9-0.1,2.5c-0.1,2.3-0.6,4-1.5,5.1
		c-0.9,1.1-2.2,1.7-4.1,1.7c-1.8,0-3.2-0.6-4.1-1.7c-0.9-1.1-1.4-2.8-1.5-5.1c0-0.6-0.1-1.5-0.1-2.5
		C49.3,137.7,49.4,136.8,49.4,136.2z"/>
	<path  d="M100.9,154.7c0.3,0.3,0.7,0.5,1.1,0.5h8c0.5,0,0.8-0.2,1.1-0.5c0.3-0.3,0.4-0.7,0.4-1.1v-17.6
		c0-3.1-0.5-5.7-1.6-7.8c-1.1-2.1-2.6-3.7-4.4-4.8c-1.9-1.1-4-1.6-6.5-1.6c-2.4,0-4.5,0.4-6.3,1.3c-1.8,0.9-3.2,2-4.2,3.3v-2.4
		c0-0.5-0.2-0.8-0.5-1.1c-0.3-0.3-0.7-0.4-1.2-0.4h-7.3c-0.5,0-0.8,0.1-1.1,0.4c-0.3,0.3-0.4,0.7-0.4,1.1v29.7
		c0,0.4,0.1,0.8,0.4,1.1c0.3,0.3,0.7,0.5,1.1,0.5h7.9c0.4,0,0.8-0.2,1.1-0.5c0.3-0.3,0.5-0.7,0.5-1.1v-17.3c0-2,0.5-3.5,1.5-4.6
		c1-1.1,2.4-1.6,4.1-1.6c1.9,0,3.3,0.5,4.2,1.6c0.9,1.1,1.4,2.6,1.4,4.6v17.3C100.4,154,100.6,154.4,100.9,154.7z"/>
	<path  d="M120.6,152.6c1.2,0.9,2.8,1.6,4.7,2.2c1.9,0.6,4.2,0.9,7,0.9c3.4,0,6.3-0.4,8.6-1.3s4.1-2.1,5.3-3.6
		c1.2-1.6,1.8-3.4,1.8-5.4c0-1.5-0.4-3-1.1-4.3c-0.7-1.4-2-2.6-3.7-3.6c-1.7-1-4-1.8-7-2.2c-2.4-0.5-4.1-0.9-5.2-1.3
		c-1.1-0.4-1.9-0.8-2.2-1.3c-0.4-0.5-0.5-1-0.5-1.5c0-0.8,0.3-1.5,0.9-2c0.6-0.5,1.5-0.8,2.7-0.8c1,0,1.9,0.2,2.5,0.5
		c0.7,0.3,1.3,0.7,1.8,1.1c0.5,0.4,1,0.8,1.5,1c0.1,0.1,0.3,0.2,0.4,0.2c0.2,0.1,0.3,0.1,0.5,0.1h6.6c0.4,0,0.7-0.2,1-0.5
		c0.3-0.3,0.4-0.7,0.4-1.1c0-0.8-0.4-1.6-1-2.5c-0.6-0.9-1.6-1.8-2.8-2.7c-1.2-0.9-2.7-1.6-4.6-2.2c-1.8-0.6-3.9-0.9-6.3-0.9
		c-3.1,0-5.7,0.5-7.8,1.5c-2.1,1-3.7,2.3-4.8,3.8c-1.1,1.6-1.6,3.2-1.6,4.9c0,1.9,0.4,3.5,1.3,4.8c0.9,1.3,2.2,2.4,3.8,3.2
		c1.6,0.8,3.6,1.5,5.8,2c2.3,0.4,4.1,0.8,5.2,1.3c1.2,0.4,1.9,0.9,2.3,1.3c0.4,0.4,0.6,1,0.6,1.7c0,0.9-0.4,1.6-1.2,2.1
		c-0.8,0.5-1.8,0.7-3,0.7c-1,0-1.9-0.2-2.6-0.5c-0.7-0.3-1.4-0.7-1.9-1.2c-0.5-0.4-1.1-0.8-1.6-1.1c-0.1-0.1-0.2-0.2-0.3-0.3
		c-0.1,0-0.2-0.1-0.3-0.1h-7.2c-0.4,0-0.7,0.1-1.1,0.4c-0.3,0.3-0.5,0.7-0.4,1.1c0,0.7,0.4,1.5,0.9,2.5
		C118.5,150.8,119.4,151.7,120.6,152.6z"/>
	<path  d="M154.6,128.9c-1.4,2.4-2.1,5.2-2.2,8.6c0,0.3,0,0.6,0,1.1c0,0.5,0,0.8,0,1.1c0.1,5.3,1.7,9.3,4.6,12
		c3,2.7,6.9,4,11.9,4c2.6,0,4.8-0.3,6.8-0.9c1.9-0.6,3.6-1.4,4.8-2.4c1.3-1,2.3-2,2.9-3c0.7-1,1-1.9,1.1-2.6c0-0.4-0.1-0.8-0.3-1
		c-0.3-0.3-0.6-0.4-1-0.4h-7.8c-0.5,0-0.9,0.1-1.1,0.2c-0.2,0.1-0.5,0.4-0.9,0.9c-0.2,0.3-0.5,0.6-0.9,0.9c-0.4,0.4-0.9,0.7-1.4,0.9
		c-0.6,0.3-1.3,0.4-2.1,0.4c-1.1,0-2.1-0.3-2.9-0.9c-0.8-0.6-1.4-1.4-1.8-2.4c-0.4-1-0.6-2.1-0.7-3.4c0-0.1,0-0.2,0-0.3
		c0-0.1,0-0.1,0-0.2h20.2c0.5,0,0.8-0.1,1.1-0.4c0.3-0.3,0.4-0.7,0.4-1.1v-1.5c0-3.2-0.6-6.1-1.8-8.7c-1.2-2.5-3-4.5-5.5-6
		c-2.4-1.5-5.5-2.2-9.2-2.2c-3.2,0-6.1,0.6-8.5,1.9C157.9,124.7,156,126.6,154.6,128.9z M163.5,135.2c0-1.4,0.2-2.6,0.6-3.6
		c0.4-1,1-1.8,1.8-2.3c0.8-0.5,1.7-0.8,2.8-0.8c1.1,0,2.1,0.3,2.9,0.8c0.8,0.5,1.4,1.3,1.8,2.3c0.4,1,0.6,2.2,0.6,3.6v0.1h-10.7
		V135.2z"/>
	<path  d="M206.4,121.6c-3.1,0-5.9,0.6-8.3,1.7c-2.4,1.1-4.3,2.8-5.7,5c-1.4,2.2-2.1,4.8-2.3,7.9c0,0.7-0.1,1.5-0.1,2.6
		c0,1,0,1.9,0.1,2.6c0.1,3,0.9,5.6,2.3,7.8c1.4,2.2,3.3,3.8,5.7,5c2.4,1.1,5.2,1.7,8.3,1.7c2.4,0,4.5-0.3,6.3-0.9
		c1.8-0.6,3.4-1.3,4.6-2.2c1.3-0.9,2.3-1.9,3.1-2.9c0.8-1.1,1.4-2.1,1.8-3c0.4-1,0.6-1.8,0.6-2.5c0-0.5-0.1-0.8-0.4-1.1
		c-0.3-0.3-0.7-0.4-1.1-0.4h-8c-0.5,0-0.8,0.1-1.1,0.3c-0.3,0.2-0.5,0.5-0.7,0.9c-0.5,1.3-1.1,2.2-1.8,2.8c-0.8,0.6-1.8,0.9-3.1,0.9
		c-1.7,0-3-0.5-3.9-1.6c-0.9-1.1-1.4-2.7-1.5-5.1c0-1.3,0-2.8,0-4.5c0.1-2.3,0.6-4,1.5-5.1c0.9-1.1,2.2-1.6,3.9-1.6
		c1.2,0,2.2,0.3,3,0.8c0.8,0.5,1.4,1.5,1.9,2.8c0.2,0.4,0.4,0.7,0.7,0.9c0.3,0.2,0.6,0.3,1.1,0.3h8c0.4,0,0.8-0.2,1.1-0.5
		c0.3-0.3,0.5-0.7,0.4-1.1c0-1-0.4-2.1-1-3.4c-0.7-1.3-1.6-2.5-2.9-3.8c-1.3-1.2-3-2.2-5.1-3.1S209.3,121.6,206.4,121.6z"/>
	<path  d="M227.4,130.5h4.9v12.1c0,2.9,0.5,5.3,1.6,7.1c1.1,1.8,2.6,3.2,4.5,4c2,0.9,4.3,1.3,7,1.3h5.9
		c0.5,0,0.8-0.2,1.1-0.5c0.3-0.3,0.4-0.7,0.4-1.1v-5.5c0-0.5-0.1-0.8-0.4-1.1c-0.3-0.3-0.7-0.4-1.1-0.4h-4.9c-1.3,0-2.2-0.4-2.8-1.3
		c-0.5-0.8-0.8-2-0.8-3.4v-11.3h7.9c0.5,0,0.9-0.1,1.2-0.4c0.3-0.3,0.5-0.7,0.5-1.1v-5.1c0-0.5-0.2-0.8-0.5-1.1
		c-0.3-0.3-0.7-0.4-1.2-0.4h-7.9v-10.4c0-0.5-0.1-0.8-0.4-1.1c-0.3-0.3-0.7-0.4-1.1-0.4h-7.3c-0.4,0-0.8,0.1-1.1,0.4
		c-0.3,0.3-0.5,0.7-0.5,1.1v10.4h-4.9c-0.5,0-0.9,0.1-1.2,0.4c-0.3,0.3-0.5,0.7-0.5,1.1v5.1c0,0.5,0.2,0.8,0.5,1.1
		C226.5,130.4,226.9,130.5,227.4,130.5z"/>
	<path  d="M267.9,141.6h20.2c0.5,0,0.8-0.1,1.1-0.4c0.3-0.3,0.4-0.7,0.4-1.1v-1.5c0-3.2-0.6-6.1-1.8-8.7
		c-1.2-2.5-3-4.5-5.5-6c-2.4-1.5-5.5-2.2-9.2-2.2c-3.2,0-6.1,0.6-8.5,1.9c-2.4,1.2-4.3,3.1-5.7,5.4c-1.4,2.4-2.1,5.2-2.2,8.6
		c0,0.3,0,0.6,0,1.1c0,0.5,0,0.8,0,1.1c0.1,5.3,1.7,9.3,4.6,12c3,2.7,6.9,4,11.9,4c2.6,0,4.8-0.3,6.8-0.9c1.9-0.6,3.6-1.4,4.8-2.4
		c1.3-1,2.3-2,2.9-3c0.7-1,1-1.9,1.1-2.6c0-0.4-0.1-0.8-0.3-1c-0.3-0.3-0.6-0.4-1-0.4h-7.8c-0.5,0-0.9,0.1-1.1,0.2
		c-0.2,0.1-0.5,0.4-0.9,0.9c-0.2,0.3-0.5,0.6-0.9,0.9c-0.4,0.4-0.9,0.7-1.4,0.9c-0.6,0.3-1.3,0.4-2.1,0.4c-1.1,0-2.1-0.3-2.9-0.9
		c-0.8-0.6-1.4-1.4-1.8-2.4c-0.4-1-0.6-2.1-0.7-3.4c0-0.1,0-0.2,0-0.3C267.9,141.7,267.9,141.7,267.9,141.6z M267.9,135.2
		c0-1.4,0.2-2.6,0.6-3.6c0.4-1,1-1.8,1.8-2.3c0.8-0.5,1.7-0.8,2.8-0.8c1.1,0,2.1,0.3,2.9,0.8c0.8,0.5,1.4,1.3,1.8,2.3
		c0.4,1,0.6,2.2,0.6,3.6v0.1h-10.7V135.2z"/>
</svg>
