<?xml version="1.0" encoding="utf-8"?>
<!-- Generator: Adobe Illustrator 26.1.0, SVG Export Plug-In . SVG Version: 6.00 Build 0)  -->
<svg version="1.1" id="icon-slider" xmlns="http://www.w3.org/2000/svg" xmlns:xlink="http://www.w3.org/1999/xlink" x="0px"
	 y="0px" viewBox="0 0 1000 1000" style="enable-background:new 0 0 1000 1000;" xml:space="preserve">
<path d="M0,252.3v495.4C0,887,113,1000,252.3,1000h495.4C887,1000,1000,887,1000,747.7V252.3C1000,113,887,0,747.7,0H252.3
	C113,0,0,113,0,252.3z M376.9,678.4c17.6,17.6,17.6,46.1,0,63.6c-8.8,8.8-20.3,13.2-31.8,13.2s-23-4.4-31.8-13.2l-210-210
	c-17.6-17.6-17.6-46,0-63.6l210-210.4c17.6-17.6,46.1-17.6,63.6-0.1c17.6,17.6,17.6,46,0.1,63.6l-0.3,0.3
	C278.4,420.4,278.5,580,376.9,678.4L376.9,678.4z M896.6,531.6L686.5,742c-8.8,8.8-20.3,13.2-31.9,13.2c-11.5,0-23-4.4-31.8-13.1
	c-17.6-17.6-17.6-46-0.1-63.6l0.3-0.3c98.3-98.5,98.3-258.1,0-356.5l-0.1-0.1c-17.6-17.6-17.6-46.1,0-63.6
	c17.6-17.6,46.1-17.6,63.6,0l210,210C914.1,485.5,914.1,514,896.6,531.6z"/>
</svg>
