<svg id="icon-product" version="1.1" id="Icon" xmlns="http://www.w3.org/2000/svg" xmlns:xlink="http://www.w3.org/1999/xlink" x="0px" y="0px"
	 viewBox="0 0 418 418" style="enable-background:new 0 0 418 418;" xml:space="preserve">
<style type="text/css">
	.st0{fill:#333333;}
	.st1{font-family:'Roboto-Bold';}
	.st2{font-size:29.7542px;}
	.st3{fill:#C8C8C8;}
	.st4{fill:#FFFFFF;}
</style>
<g id="product">
	<path id="Schoen" class="st0" d="M57.1,134.6l-6.6,20.9c-0.3,0.9,0,1.9,0.8,2.5l23.1,16.6c0.4,0.3,0.8,0.4,1.3,0.4h246.7
		c0.2,0,0.3,0,0.5-0.1c2.7-0.6,26.4-6.5,43.4-20.1c0.3-0.3,0.6-0.6,0.7-1c1.2-3.1,5.7-17.9-8.2-27.1c-0.2-0.2-0.5-0.3-0.8-0.3
		c-9.8-2.1-186.7-40.7-198.6-112.1c-0.6-3.5-4.4-5.3-7.5-3.6c-5.4,3-11.8,8.2-10,15.2l1.4,34.7c0,0.4-0.1,0.8-0.2,1.1
		c-1.5,2.8-9,15.6-24.7,15.6c-15.6,0-27.8-19.6-30.3-24.1c-0.4-0.7-1-1.1-1.8-1.1c-1.6-0.1-4.4,0.2-7.3,2.9
		c-0.2,0.1-0.3,0.3-0.4,0.5l-8.5,14.1c-0.1,0.2-0.2,0.4-0.3,0.7l-9.8,46.4c-0.2,1,0.3,2,1.2,2.4h0c0.8,0.4,1.3,1.3,1.2,2.3l-1.1,9.1
		c-0.1,0.7-0.5,1.3-1.1,1.6l-2,1.2C57.6,133.6,57.3,134.1,57.1,134.6z"/>
	<text transform="matrix(1 0 0 1 51.2358 246.0527)" class="st1 st2">Product</text>
	<g>
		<g>
			<path d="M61.8,283.3c1,0,1.9,0.1,2.7,0.3c0.8,0.2,1.6,0.5,2.4,0.9l-1.4,3.4c-0.7-0.3-1.3-0.5-1.9-0.7s-1.2-0.3-1.8-0.3
				c-0.6,0-1.1,0.1-1.6,0.3c-0.5,0.2-0.9,0.4-1.3,0.8s-0.7,0.8-0.9,1.2s-0.4,1.1-0.5,1.7h5.9v2.6h-6.1c0,0.1,0,0.2,0,0.3
				s0,0.3,0,0.5c0,0.2,0,0.3,0,0.4c0,0.1,0,0.3,0,0.5h5.2v2.6h-4.9c0.2,0.8,0.4,1.4,0.8,1.9c0.4,0.5,0.9,0.9,1.6,1.2
				s1.4,0.4,2.3,0.4c0.8,0,1.5-0.1,2.1-0.2c0.7-0.2,1.3-0.4,1.9-0.6v3.7c-0.6,0.3-1.2,0.5-1.9,0.6c-0.7,0.1-1.5,0.2-2.4,0.2
				c-1.5,0-2.9-0.3-4.1-0.9s-2.2-1.4-3-2.5s-1.3-2.4-1.6-4h-2v-2.6h1.7c0-0.1,0-0.2,0-0.4c0-0.2,0-0.3,0-0.5c0-0.1,0-0.3,0-0.4
				c0-0.1,0-0.3,0-0.3h-1.7v-2.6H53c0.3-1.6,0.8-2.9,1.6-4.1c0.8-1.1,1.8-2,3-2.6S60.3,283.3,61.8,283.3z"/>
			<path d="M75.7,283.2c1.2,0,2.3,0.2,3.4,0.6c1,0.4,1.9,0.9,2.5,1.7c0.6,0.8,0.9,1.7,0.9,2.9c0,0.9-0.2,1.6-0.5,2.2
				c-0.3,0.6-0.8,1.2-1.4,1.7c-0.6,0.5-1.2,0.9-1.9,1.3c0.8,0.4,1.5,0.9,2.1,1.4c0.7,0.5,1.2,1.1,1.7,1.9c0.4,0.7,0.6,1.5,0.6,2.5
				c0,1.2-0.3,2.2-0.9,3.1c-0.6,0.9-1.5,1.5-2.6,2c-1.1,0.5-2.4,0.7-3.9,0.7c-1.6,0-2.9-0.2-4.1-0.7c-1.1-0.5-2-1.1-2.5-2
				c-0.6-0.8-0.9-1.9-0.9-3c0-1,0.2-1.8,0.5-2.5s0.9-1.3,1.5-1.9c0.6-0.5,1.3-1,2-1.3c-0.6-0.4-1.2-0.8-1.7-1.4
				c-0.5-0.5-0.9-1.1-1.2-1.7c-0.3-0.6-0.5-1.4-0.5-2.2c0-1.1,0.3-2.1,1-2.8c0.6-0.8,1.5-1.3,2.5-1.7
				C73.3,283.4,74.5,283.2,75.7,283.2z M72.4,299c0,0.8,0.3,1.4,0.8,1.9c0.5,0.5,1.4,0.7,2.4,0.7c1.1,0,1.9-0.2,2.5-0.7
				c0.6-0.5,0.8-1.1,0.8-1.9c0-0.5-0.2-1-0.5-1.4c-0.3-0.4-0.7-0.8-1.2-1.1c-0.5-0.3-1-0.6-1.4-0.9l-0.4-0.2
				c-0.6,0.3-1.2,0.6-1.6,0.9s-0.8,0.7-1.1,1.2C72.5,298,72.4,298.5,72.4,299z M75.6,286.4c-0.7,0-1.3,0.2-1.8,0.6
				c-0.5,0.4-0.7,0.9-0.7,1.6c0,0.5,0.1,0.9,0.4,1.3c0.2,0.4,0.6,0.7,0.9,1c0.4,0.3,0.8,0.5,1.3,0.8c0.4-0.2,0.9-0.5,1.2-0.7
				c0.4-0.3,0.7-0.6,0.9-0.9c0.2-0.4,0.4-0.8,0.4-1.3c0-0.7-0.2-1.2-0.7-1.6C77,286.6,76.4,286.4,75.6,286.4z"/>
			<path d="M96.5,304.7H92v-12.3c0-0.3,0-0.8,0-1.3c0-0.5,0-1,0-1.5c0-0.5,0-1,0.1-1.4c-0.1,0.1-0.3,0.3-0.6,0.6
				c-0.3,0.3-0.6,0.6-0.9,0.8l-2.4,2l-2.2-2.7l6.8-5.4h3.7V304.7z"/>
			<path d="M107.6,301.2l0.2,0.3c-0.2,0.7-0.4,1.4-0.7,2.3c-0.3,0.8-0.6,1.6-0.9,2.4c-0.3,0.8-0.7,1.6-1,2.3h-3.2
				c0.2-0.8,0.4-1.6,0.6-2.5c0.2-0.9,0.4-1.7,0.5-2.5c0.2-0.8,0.3-1.6,0.4-2.3H107.6z"/>
			<path d="M125.6,294.1c0,1.7-0.1,3.2-0.4,4.6c-0.3,1.3-0.7,2.5-1.3,3.4s-1.4,1.7-2.3,2.2s-2.1,0.7-3.5,0.7c-1.7,0-3.1-0.4-4.2-1.3
				c-1.1-0.9-1.9-2.1-2.4-3.7c-0.5-1.6-0.8-3.6-0.8-5.9c0-2.3,0.2-4.3,0.7-5.9c0.5-1.6,1.3-2.9,2.3-3.8c1.1-0.9,2.5-1.3,4.3-1.3
				c1.7,0,3.1,0.4,4.2,1.3c1.1,0.9,1.9,2.1,2.4,3.7C125.3,289.8,125.6,291.8,125.6,294.1z M115.2,294.1c0,1.6,0.1,3,0.3,4
				s0.5,1.9,0.9,2.4c0.4,0.5,1,0.8,1.8,0.8c0.7,0,1.3-0.3,1.8-0.8c0.4-0.5,0.7-1.3,0.9-2.4s0.3-2.4,0.3-4.1c0-1.6-0.1-3-0.3-4.1
				s-0.5-1.9-0.9-2.4c-0.4-0.5-1-0.8-1.8-0.8c-0.8,0-1.3,0.3-1.8,0.8c-0.4,0.5-0.7,1.4-0.9,2.4S115.2,292.4,115.2,294.1z"/>
			<path d="M142.6,294.1c0,1.7-0.1,3.2-0.4,4.6c-0.3,1.3-0.7,2.5-1.3,3.4s-1.4,1.7-2.3,2.2s-2.1,0.7-3.5,0.7c-1.7,0-3.1-0.4-4.2-1.3
				c-1.1-0.9-1.9-2.1-2.4-3.7c-0.5-1.6-0.8-3.6-0.8-5.9c0-2.3,0.2-4.3,0.7-5.9c0.5-1.6,1.3-2.9,2.3-3.8c1.1-0.9,2.5-1.3,4.3-1.3
				c1.7,0,3.1,0.4,4.2,1.3c1.1,0.9,1.9,2.1,2.4,3.7C142.3,289.8,142.6,291.8,142.6,294.1z M132.2,294.1c0,1.6,0.1,3,0.3,4
				s0.5,1.9,0.9,2.4c0.4,0.5,1,0.8,1.8,0.8c0.7,0,1.3-0.3,1.8-0.8c0.4-0.5,0.7-1.3,0.9-2.4s0.3-2.4,0.3-4.1c0-1.6-0.1-3-0.3-4.1
				s-0.5-1.9-0.9-2.4c-0.4-0.5-1-0.8-1.8-0.8c-0.8,0-1.3,0.3-1.8,0.8c-0.4,0.5-0.7,1.4-0.9,2.4S132.2,292.4,132.2,294.1z"/>
			<path class="st3" d="M159.5,290.5l-5.3,14.2h-2.7l5.3-14.2H159.5z"/>
			<path class="st3" d="M172.5,290.4c0.7,0,1.3,0.1,1.8,0.2c0.6,0.1,1.1,0.3,1.6,0.6l-0.9,2.2c-0.4-0.2-0.9-0.4-1.2-0.5
				c-0.4-0.1-0.8-0.2-1.2-0.2c-0.4,0-0.8,0.1-1.1,0.2c-0.3,0.1-0.6,0.3-0.9,0.5c-0.3,0.2-0.5,0.5-0.6,0.8c-0.2,0.3-0.3,0.7-0.4,1.1
				h3.9v1.7h-4c0,0,0,0.1,0,0.2c0,0.1,0,0.2,0,0.3c0,0.1,0,0.2,0,0.3c0,0.1,0,0.2,0,0.3h3.4v1.7h-3.3c0.1,0.5,0.3,0.9,0.6,1.3
				c0.3,0.4,0.6,0.6,1,0.8c0.4,0.2,0.9,0.3,1.5,0.3c0.5,0,1,0,1.4-0.1c0.4-0.1,0.9-0.2,1.2-0.4v2.5c-0.4,0.2-0.8,0.3-1.2,0.4
				c-0.5,0.1-1,0.1-1.6,0.1c-1,0-2-0.2-2.8-0.6c-0.8-0.4-1.5-0.9-2-1.7c-0.5-0.7-0.9-1.6-1.1-2.6h-1.3v-1.7h1.1c0-0.1,0-0.2,0-0.3
				c0-0.1,0-0.2,0-0.3c0-0.1,0-0.2,0-0.3c0-0.1,0-0.2,0-0.2h-1.1v-1.7h1.3c0.2-1.1,0.5-2,1-2.7c0.5-0.8,1.2-1.3,2-1.7
				C170.6,290.6,171.5,290.4,172.5,290.4z"/>
			<path class="st3" d="M176.8,298.7c0-0.8,0.1-1.6,0.2-2.4c0.1-0.8,0.3-1.5,0.6-2.3c0.3-0.7,0.7-1.3,1.2-1.9c0.5-0.5,1.2-1,2-1.3
				c0.8-0.3,1.8-0.5,3-0.5c0.3,0,0.6,0,1,0c0.4,0,0.7,0.1,0.9,0.1v2.4c-0.3-0.1-0.5-0.1-0.8-0.1s-0.6-0.1-0.9-0.1
				c-1.2,0-2.1,0.2-2.7,0.6c-0.6,0.4-1.1,0.9-1.4,1.6c-0.3,0.7-0.4,1.4-0.5,2.3h0.1c0.2-0.3,0.4-0.6,0.7-0.8s0.6-0.4,1-0.6
				c0.4-0.1,0.9-0.2,1.4-0.2c0.8,0,1.5,0.2,2.1,0.5c0.6,0.4,1.1,0.9,1.4,1.5c0.3,0.7,0.5,1.5,0.5,2.4c0,1-0.2,1.9-0.6,2.6
				c-0.4,0.7-1,1.3-1.7,1.7c-0.7,0.4-1.6,0.6-2.6,0.6c-0.7,0-1.4-0.1-2-0.4c-0.6-0.2-1.2-0.6-1.6-1.1c-0.5-0.5-0.8-1.2-1.1-1.9
				C176.9,300.6,176.8,299.7,176.8,298.7z M181.9,302.5c0.6,0,1.1-0.2,1.4-0.6c0.4-0.4,0.6-1,0.6-1.9c0-0.7-0.2-1.2-0.5-1.6
				c-0.3-0.4-0.8-0.6-1.4-0.6c-0.4,0-0.8,0.1-1.2,0.3s-0.6,0.4-0.8,0.7c-0.2,0.3-0.3,0.6-0.3,0.9c0,0.3,0,0.7,0.1,1
				c0.1,0.3,0.2,0.6,0.4,0.9c0.2,0.3,0.4,0.5,0.7,0.6C181.3,302.4,181.6,302.5,181.9,302.5z"/>
			<path class="st3" d="M188.1,298.7c0-0.8,0.1-1.6,0.2-2.4c0.1-0.8,0.3-1.5,0.6-2.3c0.3-0.7,0.7-1.3,1.2-1.9c0.5-0.5,1.2-1,2-1.3
				c0.8-0.3,1.8-0.5,3-0.5c0.3,0,0.6,0,1,0c0.4,0,0.7,0.1,0.9,0.1v2.4c-0.3-0.1-0.5-0.1-0.8-0.1s-0.6-0.1-0.9-0.1
				c-1.2,0-2.1,0.2-2.7,0.6c-0.6,0.4-1.1,0.9-1.4,1.6c-0.3,0.7-0.4,1.4-0.5,2.3h0.1c0.2-0.3,0.4-0.6,0.7-0.8s0.6-0.4,1-0.6
				c0.4-0.1,0.9-0.2,1.4-0.2c0.8,0,1.5,0.2,2.1,0.5c0.6,0.4,1.1,0.9,1.4,1.5c0.3,0.7,0.5,1.5,0.5,2.4c0,1-0.2,1.9-0.6,2.6
				c-0.4,0.7-1,1.3-1.7,1.7c-0.7,0.4-1.6,0.6-2.6,0.6c-0.7,0-1.4-0.1-2-0.4c-0.6-0.2-1.2-0.6-1.6-1.1c-0.5-0.5-0.8-1.2-1.1-1.9
				C188.3,300.6,188.1,299.7,188.1,298.7z M193.3,302.5c0.6,0,1.1-0.2,1.4-0.6c0.4-0.4,0.6-1,0.6-1.9c0-0.7-0.2-1.2-0.5-1.6
				c-0.3-0.4-0.8-0.6-1.4-0.6c-0.4,0-0.8,0.1-1.2,0.3s-0.6,0.4-0.8,0.7c-0.2,0.3-0.3,0.6-0.3,0.9c0,0.3,0,0.7,0.1,1
				c0.1,0.3,0.2,0.6,0.4,0.9c0.2,0.3,0.4,0.5,0.7,0.6C192.6,302.4,192.9,302.5,193.3,302.5z"/>
			<path class="st3" d="M203.1,302.4l0.1,0.2c-0.1,0.5-0.3,1-0.5,1.5c-0.2,0.5-0.4,1.1-0.6,1.6c-0.2,0.5-0.4,1-0.7,1.5h-2.1
				c0.1-0.5,0.3-1.1,0.4-1.6c0.1-0.6,0.2-1.1,0.3-1.7c0.1-0.6,0.2-1.1,0.3-1.5H203.1z"/>
			<path class="st3" d="M215.1,296.6c0,0.8-0.1,1.6-0.2,2.4s-0.3,1.6-0.6,2.3c-0.3,0.7-0.7,1.3-1.2,1.9c-0.5,0.5-1.2,1-2,1.3
				c-0.8,0.3-1.8,0.5-3,0.5c-0.3,0-0.6,0-1,0c-0.4,0-0.7-0.1-0.9-0.1v-2.4c0.3,0.1,0.5,0.1,0.8,0.2c0.3,0,0.6,0.1,0.9,0.1
				c1.2,0,2.1-0.2,2.7-0.6c0.6-0.4,1.1-0.9,1.4-1.6c0.3-0.7,0.4-1.4,0.5-2.3h-0.1c-0.2,0.3-0.4,0.6-0.7,0.8c-0.3,0.2-0.6,0.4-1,0.6
				c-0.4,0.1-0.9,0.2-1.5,0.2c-0.8,0-1.5-0.2-2.1-0.5c-0.6-0.4-1.1-0.9-1.4-1.5s-0.5-1.5-0.5-2.4c0-1,0.2-1.9,0.6-2.6
				s0.9-1.3,1.7-1.7c0.7-0.4,1.6-0.6,2.6-0.6c0.7,0,1.4,0.1,2,0.4c0.6,0.2,1.2,0.6,1.7,1.1c0.5,0.5,0.8,1.2,1.1,1.9
				C214.9,294.6,215.1,295.5,215.1,296.6z M210,292.8c-0.6,0-1.1,0.2-1.4,0.6s-0.6,1-0.6,1.9c0,0.7,0.2,1.2,0.5,1.6s0.8,0.6,1.4,0.6
				c0.4,0,0.8-0.1,1.2-0.3c0.3-0.2,0.6-0.4,0.8-0.7c0.2-0.3,0.3-0.6,0.3-0.9c0-0.3,0-0.7-0.1-1c-0.1-0.3-0.2-0.6-0.4-0.9
				c-0.2-0.3-0.4-0.5-0.7-0.6S210.3,292.8,210,292.8z"/>
			<path class="st3" d="M226.8,301.7h-1.7v2.9h-2.9v-2.9h-6v-2.1l6.2-9.1h2.8v8.9h1.7V301.7z M222.2,299.4V297c0-0.2,0-0.5,0-0.8
				c0-0.3,0-0.6,0-0.9c0-0.3,0-0.6,0-0.8c0-0.2,0-0.4,0-0.5h-0.1c-0.1,0.3-0.3,0.5-0.4,0.8c-0.1,0.2-0.3,0.5-0.5,0.8l-2.6,3.9H222.2
				z"/>
		</g>
	</g>
	<path class="st0" d="M246,405H59c-5,0-9-4-9-9v-43.2c0-5,4-9,9-9h187c5,0,9,4,9,9V396C255,401,250.9,405,246,405z"/>
	<g>
		<g>
			<path class="st4" d="M120.3,383.4h-2.6v-13.8H113v-2.2h12v2.2h-4.7V383.4z"/>
			<path class="st4" d="M137.9,377.3c0,1-0.1,1.9-0.4,2.7c-0.3,0.8-0.6,1.4-1.2,2s-1.1,1-1.8,1.2s-1.5,0.4-2.4,0.4
				c-0.8,0-1.6-0.1-2.3-0.4c-0.7-0.3-1.3-0.7-1.8-1.2s-0.9-1.2-1.2-2c-0.3-0.8-0.4-1.7-0.4-2.7c0-1.3,0.2-2.5,0.7-3.4
				c0.5-0.9,1.1-1.6,2-2.1c0.9-0.5,1.9-0.7,3.1-0.7c1.1,0,2.1,0.2,3,0.7c0.9,0.5,1.5,1.2,2,2.1S137.9,376,137.9,377.3z M129.1,377.3
				c0,0.9,0.1,1.6,0.3,2.3c0.2,0.6,0.5,1.1,1,1.4c0.5,0.3,1,0.5,1.8,0.5c0.7,0,1.3-0.2,1.7-0.5c0.5-0.3,0.8-0.8,1-1.4
				c0.2-0.6,0.3-1.4,0.3-2.3c0-0.9-0.1-1.6-0.3-2.2c-0.2-0.6-0.5-1.1-1-1.4c-0.5-0.3-1-0.5-1.8-0.5c-1.1,0-1.8,0.4-2.3,1.1
				C129.4,375,129.1,376,129.1,377.3z"/>
			<path class="st4" d="M145.7,371.1c1.1,0,2,0.2,2.8,0.7c0.8,0.4,1.4,1.1,1.8,1.9s0.6,1.8,0.6,2.9v1.4h-8.1c0,1.2,0.3,2.1,0.9,2.7
				c0.6,0.6,1.4,1,2.5,1c0.8,0,1.5-0.1,2.1-0.2c0.6-0.2,1.3-0.4,1.9-0.7v2.1c-0.6,0.3-1.2,0.5-1.9,0.6c-0.6,0.1-1.4,0.2-2.3,0.2
				c-1.2,0-2.2-0.2-3.1-0.7c-0.9-0.5-1.6-1.2-2.1-2.1s-0.8-2.1-0.8-3.4c0-1.4,0.2-2.5,0.7-3.5s1.1-1.7,1.9-2.2
				C143.7,371.3,144.6,371.1,145.7,371.1z M145.7,373c-0.8,0-1.5,0.3-2,0.8s-0.8,1.3-0.9,2.3h5.5c0-0.6-0.1-1.1-0.3-1.6
				c-0.2-0.5-0.5-0.8-0.9-1.1C146.8,373.1,146.3,373,145.7,373z"/>
			<path class="st4" d="M156.6,383.4l-4.6-12.1h2.7l2.5,7.1c0.2,0.5,0.3,0.9,0.4,1.5c0.1,0.5,0.2,1,0.3,1.3h0.1
				c0.1-0.4,0.1-0.8,0.3-1.3c0.1-0.5,0.3-1,0.4-1.5l2.5-7.1h2.7l-4.6,12.1H156.6z"/>
			<path class="st4" d="M176.6,377.3c0,1-0.1,1.9-0.4,2.7c-0.3,0.8-0.6,1.4-1.2,2s-1.1,1-1.8,1.2s-1.5,0.4-2.4,0.4
				c-0.8,0-1.6-0.1-2.3-0.4c-0.7-0.3-1.3-0.7-1.8-1.2s-0.9-1.2-1.2-2c-0.3-0.8-0.4-1.7-0.4-2.7c0-1.3,0.2-2.5,0.7-3.4
				c0.5-0.9,1.1-1.6,2-2.1c0.9-0.5,1.9-0.7,3.1-0.7c1.1,0,2.1,0.2,3,0.7c0.9,0.5,1.5,1.2,2,2.1S176.6,376,176.6,377.3z M167.8,377.3
				c0,0.9,0.1,1.6,0.3,2.3c0.2,0.6,0.5,1.1,1,1.4c0.5,0.3,1,0.5,1.8,0.5c0.7,0,1.3-0.2,1.7-0.5c0.5-0.3,0.8-0.8,1-1.4
				c0.2-0.6,0.3-1.4,0.3-2.3c0-0.9-0.1-1.6-0.3-2.2c-0.2-0.6-0.5-1.1-1-1.4c-0.5-0.3-1-0.5-1.8-0.5c-1.1,0-1.8,0.4-2.3,1.1
				C168,375,167.8,376,167.8,377.3z"/>
			<path class="st4" d="M184.4,371.1c1.1,0,2,0.2,2.8,0.7c0.8,0.4,1.4,1.1,1.8,1.9s0.6,1.8,0.6,2.9v1.4h-8.1c0,1.2,0.3,2.1,0.9,2.7
				c0.6,0.6,1.4,1,2.5,1c0.8,0,1.5-0.1,2.1-0.2c0.6-0.2,1.3-0.4,1.9-0.7v2.1c-0.6,0.3-1.2,0.5-1.9,0.6c-0.6,0.1-1.4,0.2-2.3,0.2
				c-1.2,0-2.2-0.2-3.1-0.7c-0.9-0.5-1.6-1.2-2.1-2.1s-0.8-2.1-0.8-3.4c0-1.4,0.2-2.5,0.7-3.5s1.1-1.7,1.9-2.2
				C182.3,371.3,183.3,371.1,184.4,371.1z M184.4,373c-0.8,0-1.5,0.3-2,0.8s-0.8,1.3-0.9,2.3h5.5c0-0.6-0.1-1.1-0.3-1.6
				c-0.2-0.5-0.5-0.8-0.9-1.1C185.5,373.1,185,373,184.4,373z"/>
			<path class="st4" d="M195.9,388.8c-1.6,0-2.9-0.3-3.8-0.9c-0.9-0.6-1.3-1.4-1.3-2.5c0-0.7,0.2-1.4,0.7-1.9c0.5-0.5,1.1-0.9,2-1.1
				c-0.3-0.1-0.6-0.4-0.9-0.7c-0.2-0.3-0.4-0.7-0.4-1c0-0.5,0.1-0.8,0.4-1.2c0.3-0.3,0.6-0.6,1.1-0.9c-0.6-0.3-1.1-0.7-1.5-1.3
				s-0.6-1.3-0.6-2.2c0-0.9,0.2-1.6,0.6-2.2c0.4-0.6,0.9-1.1,1.6-1.4s1.6-0.5,2.6-0.5c0.2,0,0.5,0,0.7,0s0.5,0.1,0.7,0.1
				c0.2,0,0.4,0.1,0.5,0.1h4.2v1.4l-2.1,0.4c0.2,0.3,0.4,0.6,0.5,0.9c0.1,0.4,0.2,0.7,0.2,1.2c0,1.3-0.4,2.2-1.3,3
				c-0.9,0.7-2.1,1.1-3.6,1.1c-0.4,0-0.7,0-1.1-0.1c-0.3,0.2-0.5,0.3-0.6,0.5c-0.1,0.2-0.2,0.4-0.2,0.6c0,0.2,0.1,0.4,0.2,0.5
				c0.1,0.1,0.3,0.2,0.6,0.3c0.3,0.1,0.6,0.1,1,0.1h2.1c1.3,0,2.3,0.3,3,0.8s1.1,1.4,1.1,2.5c0,1.4-0.6,2.4-1.7,3.2
				C199.7,388.4,198.1,388.8,195.9,388.8z M196,387c0.9,0,1.6-0.1,2.3-0.3c0.6-0.2,1.1-0.4,1.4-0.8c0.3-0.3,0.5-0.7,0.5-1.2
				c0-0.4-0.1-0.7-0.3-0.9c-0.2-0.2-0.5-0.4-0.9-0.4s-0.9-0.1-1.5-0.1h-1.9c-0.5,0-0.9,0.1-1.3,0.2c-0.4,0.2-0.6,0.4-0.8,0.6
				c-0.2,0.3-0.3,0.6-0.3,1c0,0.6,0.2,1,0.7,1.3C194.4,386.9,195.1,387,196,387z M196.5,377.6c0.7,0,1.3-0.2,1.7-0.6
				c0.4-0.4,0.5-1,0.5-1.7c0-0.8-0.2-1.4-0.6-1.8c-0.4-0.4-0.9-0.6-1.7-0.6c-0.7,0-1.3,0.2-1.6,0.6c-0.4,0.4-0.6,1-0.6,1.8
				c0,0.7,0.2,1.3,0.6,1.7S195.8,377.6,196.5,377.6z"/>
			<path class="st4" d="M209.8,371.1c1.1,0,2,0.2,2.8,0.7c0.8,0.4,1.4,1.1,1.8,1.9s0.6,1.8,0.6,2.9v1.4h-8.1c0,1.2,0.3,2.1,0.9,2.7
				c0.6,0.6,1.4,1,2.5,1c0.8,0,1.5-0.1,2.1-0.2c0.6-0.2,1.3-0.4,1.9-0.7v2.1c-0.6,0.3-1.2,0.5-1.9,0.6c-0.6,0.1-1.4,0.2-2.3,0.2
				c-1.2,0-2.2-0.2-3.1-0.7c-0.9-0.5-1.6-1.2-2.1-2.1s-0.8-2.1-0.8-3.4c0-1.4,0.2-2.5,0.7-3.5s1.1-1.7,1.9-2.2
				C207.7,371.3,208.6,371.1,209.8,371.1z M209.8,373c-0.8,0-1.5,0.3-2,0.8s-0.8,1.3-0.9,2.3h5.5c0-0.6-0.1-1.1-0.3-1.6
				c-0.2-0.5-0.5-0.8-0.9-1.1C210.9,373.1,210.4,373,209.8,373z"/>
			<path class="st4" d="M224.2,371.1c1.4,0,2.4,0.4,3.2,1.1c0.8,0.7,1.1,1.8,1.1,3.4v7.9h-2.6V376c0-0.9-0.2-1.6-0.6-2.1
				c-0.4-0.5-1-0.7-1.8-0.7c-1.2,0-2,0.4-2.5,1.1c-0.5,0.7-0.7,1.8-0.7,3.1v6h-2.6v-12.1h2l0.4,1.6h0.1c0.3-0.4,0.6-0.8,1-1
				c0.4-0.3,0.8-0.5,1.3-0.6C223.1,371.1,223.7,371.1,224.2,371.1z"/>
		</g>
	</g>
	<path class="st4" d="M75.4,365.3c0.5,0,1,0.4,1.1,0.9l0.1,0.6h19c0.9,0,1.6,0.9,1.4,1.8l-2.4,8.7c-0.2,0.6-0.7,1.1-1.4,1.1H78.8
		l0.4,2.2h13.9c0.6,0,1.1,0.5,1.1,1.1s-0.5,1.1-1.1,1.1H78.3c-0.5,0-0.9-0.4-1-0.9l-2.7-14.3h-2.4c-0.6,0-1.1-0.5-1.1-1.1
		s0.5-1.1,1.1-1.1H75.4z M76.9,386.3c0-1.2,1-2.2,2.2-2.2c1.2,0,2.2,1,2.2,2.2c0,1.2-1,2.2-2.2,2.2
		C77.8,388.4,76.9,387.4,76.9,386.3z M94.2,386.3c0,1.2-1,2.2-2.2,2.2c-1.2,0-2.2-1-2.2-2.2c0-1.2,1-2.2,2.2-2.2
		C93.2,384.1,94.2,385.1,94.2,386.3z"/>
</g>
<g id="Arrows">
</g>
</svg>
