<svg version="1.1" id="icon-richtext" xmlns="http://www.w3.org/2000/svg" xmlns:xlink="http://www.w3.org/1999/xlink" x="0px" y="0px"
	 viewBox="0 0 319 319" style="enable-background:new 0 0 319 319;" xml:space="preserve">
<style type="text/css">
	.st0{fill:#333333;}
</style>
<g>
	<path class="st0" d="M18,69.8h36v13.6H1V1.2H18V69.8z"/>
	<path class="st0" d="M60,52.3c0-6.1,1.2-11.5,3.5-16.2c2.3-4.7,5.7-8.4,10.1-11c4.4-2.6,9.5-3.9,15.3-3.9c8.2,0,15,2.5,20.2,7.6
		c5.2,5,8.1,11.9,8.7,20.5l0.1,4.2c0,9.4-2.6,16.9-7.8,22.5c-5.2,5.7-12.2,8.5-21.1,8.5s-15.8-2.8-21.1-8.5C62.6,70.4,60,62.7,60,53
		V52.3z M76.3,53.4c0,5.8,1.1,10.2,3.3,13.3c2.2,3.1,5.3,4.6,9.4,4.6c4,0,7-1.5,9.3-4.6c2.2-3,3.3-7.9,3.3-14.6
		c0-5.7-1.1-10.1-3.3-13.2c-2.2-3.1-5.3-4.7-9.4-4.7c-4,0-7.1,1.6-9.3,4.7C77.4,42.1,76.3,46.9,76.3,53.4z"/>
	<path class="st0" d="M162.2,37.6c-2.2-0.3-4.2-0.5-5.9-0.5c-6.2,0-10.2,2.1-12.1,6.3v40h-16.3V22.3h15.4l0.5,7.3
		c3.3-5.6,7.8-8.4,13.6-8.4c1.8,0,3.5,0.2,5.1,0.7L162.2,37.6z"/>
	<path class="st0" d="M197.1,84.5c-9,0-16.2-2.7-21.9-8.2c-5.6-5.5-8.4-12.8-8.4-22v-1.6c0-6.1,1.2-11.6,3.6-16.5
		c2.4-4.8,5.7-8.6,10.1-11.2c4.3-2.6,9.3-3.9,14.9-3.9c8.4,0,14.9,2.6,19.7,7.9c4.8,5.3,7.2,12.7,7.2,22.4v6.7h-38.9
		c0.5,4,2.1,7.2,4.8,9.6c2.7,2.4,6,3.6,10.1,3.6c6.3,0,11.2-2.3,14.7-6.8l8,9c-2.4,3.5-5.8,6.2-9.9,8.1
		C206.8,83.5,202.2,84.5,197.1,84.5z M195.2,34.3c-3.2,0-5.9,1.1-7.9,3.3c-2,2.2-3.3,5.3-3.9,9.4h22.7v-1.3
		c-0.1-3.6-1.1-6.4-2.9-8.4C201.4,35.3,198.7,34.3,195.2,34.3z"/>
	<path class="st0" d="M246.8,22.3l0.5,6.8c4.3-5.3,10.2-8,17.6-8c7.9,0,13.3,3.1,16.2,9.3c4.3-6.2,10.4-9.3,18.3-9.3
		c6.6,0,11.6,1.9,14.8,5.8c3.2,3.9,4.9,9.7,4.9,17.4v39h-16.4V44.4c0-3.5-0.7-6-2-7.6c-1.4-1.6-3.7-2.4-7.2-2.4
		c-4.9,0-8.3,2.3-10.2,7l0.1,41.9H267V44.5c0-3.5-0.7-6.1-2.1-7.7c-1.4-1.6-3.8-2.4-7.1-2.4c-4.6,0-8,1.9-10,5.8v43.2h-16.3V22.3
		H246.8z"/>
</g>
<g>
	<path class="st0" d="M16,163.5c2.1,0,4-0.6,5.6-1.7c1.6-1.1,2.5-2.6,2.6-4.3h5.6c-0.1,1.8-0.8,3.4-2.1,5c-1.3,1.6-3,2.9-5.1,3.8
		c-2.1,0.9-4.4,1.4-6.7,1.4c-4.8,0-8.5-1.4-11.3-4.2c-2.8-2.8-4.2-6.6-4.2-11.5v-0.9c0-3,0.6-5.7,1.9-8c1.2-2.3,3-4.1,5.4-5.4
		c2.3-1.3,5.1-1.9,8.3-1.9c3.9,0,7.2,1,9.8,3.1c2.6,2.1,4,4.7,4.1,8h-5.6c-0.2-2-1-3.6-2.6-4.9c-1.5-1.3-3.4-1.9-5.7-1.9
		c-3,0-5.4,1-7,2.9c-1.7,1.9-2.5,4.7-2.5,8.3v1c0,3.5,0.8,6.3,2.5,8.2C10.6,162.5,13,163.5,16,163.5z"/>
	<path class="st0" d="M35,151.5c0-3,0.7-5.7,2-8.1c1.3-2.4,3.2-4.3,5.6-5.6c2.4-1.3,5.1-2,8.2-2c4.8,0,8.6,1.5,11.5,4.4
		c2.9,2.9,4.4,6.8,4.4,11.6v0.4c0,3-0.7,5.7-2,8.1c-1.3,2.4-3.2,4.2-5.6,5.6c-2.4,1.3-5.2,2-8.3,2c-4.7,0-8.6-1.5-11.5-4.4
		s-4.4-6.7-4.4-11.5V151.5z M41,152.2c0,3.4,0.9,6.2,2.7,8.2c1.8,2.1,4.2,3.1,7.2,3.1c3,0,5.4-1,7.2-3.1c1.8-2.1,2.7-5,2.7-8.8
		c0-3.4-0.9-6.1-2.7-8.2c-1.8-2.1-4.2-3.1-7.2-3.1c-2.9,0-5.3,1-7.1,3.1C41.9,145.4,41,148.3,41,152.2z"/>
	<path class="st0" d="M79.9,136.4l0.2,3.9c2.7-3,6.2-4.4,10.5-4.4c7.4,0,11.1,3.7,11.2,11v20.3h-6v-20.4c0-2.2-0.6-3.9-1.7-4.9
		c-1.1-1.1-2.9-1.6-5.3-1.6c-1.9,0-3.6,0.5-5.1,1.4c-1.5,0.9-2.6,2.1-3.4,3.6v21.9h-6v-30.8H79.9z"/>
	<path class="st0" d="M131.1,159.1c0-1.4-0.6-2.5-1.8-3.3c-1.2-0.8-3.3-1.5-6.4-2c-3-0.6-5.4-1.3-7.2-2c-1.8-0.8-3.1-1.7-3.9-2.8
		c-0.9-1.1-1.3-2.4-1.3-3.9c0-2.5,1.2-4.7,3.6-6.4c2.4-1.7,5.5-2.6,9.3-2.6c4,0,7.2,0.9,9.6,2.7c2.5,1.8,3.7,4.1,3.7,6.9h-6
		c0-1.4-0.7-2.7-2.1-3.7c-1.4-1-3.1-1.6-5.2-1.6c-2.2,0-3.9,0.4-5.1,1.3c-1.2,0.8-1.8,1.9-1.8,3.3c0,1.3,0.6,2.2,1.7,2.9
		c1.1,0.6,3.2,1.3,6.2,1.8c3,0.6,5.4,1.3,7.2,2.1c1.8,0.8,3.2,1.8,4.1,2.9c0.9,1.1,1.3,2.5,1.3,4.2c0,2.7-1.2,5-3.7,6.6
		c-2.5,1.7-5.7,2.5-9.7,2.5c-2.8,0-5.3-0.4-7.4-1.3c-2.2-0.9-3.8-2.1-5-3.7c-1.2-1.6-1.8-3.3-1.8-5.1h6c0.1,1.8,0.9,3.2,2.4,4.2
		c1.5,1,3.5,1.5,5.9,1.5c2.3,0,4.1-0.4,5.4-1.2C130.4,161.5,131.1,160.4,131.1,159.1z"/>
	<path class="st0" d="M159.3,167.8c-4.7,0-8.6-1.4-11.5-4.1c-3-2.7-4.5-6.4-4.5-11v-1c0-3.1,0.7-5.8,2-8.2c1.3-2.4,3.2-4.3,5.5-5.6
		c2.4-1.4,5-2,7.7-2c4.5,0,8.1,1.3,10.6,4c2.5,2.6,3.8,6.4,3.8,11.3v2.2h-23.6c0.1,3,1.1,5.5,3,7.3c1.9,1.9,4.4,2.8,7.3,2.8
		c2.1,0,3.9-0.4,5.4-1.1c1.5-0.8,2.7-1.8,3.8-3l3.6,2.5C169.5,165.8,165.2,167.8,159.3,167.8z M158.6,140.2c-2.4,0-4.4,0.8-6.1,2.3
		c-1.6,1.5-2.6,3.7-3,6.5H167v-0.4c-0.2-2.7-1-4.7-2.5-6.2C163,140.9,161.1,140.2,158.6,140.2z"/>
	<path class="st0" d="M193.8,163.5c2.1,0,4-0.6,5.6-1.7s2.5-2.6,2.6-4.3h5.6c-0.1,1.8-0.8,3.4-2.1,5s-3,2.9-5.1,3.8
		c-2.1,0.9-4.4,1.4-6.7,1.4c-4.8,0-8.5-1.4-11.3-4.2c-2.8-2.8-4.2-6.6-4.2-11.5v-0.9c0-3,0.6-5.7,1.9-8c1.2-2.3,3-4.1,5.4-5.4
		c2.3-1.3,5.1-1.9,8.3-1.9c3.9,0,7.2,1,9.8,3.1c2.6,2.1,4,4.7,4.1,8h-5.6c-0.2-2-1-3.6-2.6-4.9c-1.5-1.3-3.4-1.9-5.7-1.9
		c-3,0-5.4,1-7,2.9c-1.7,1.9-2.5,4.7-2.5,8.3v1c0,3.5,0.8,6.3,2.5,8.2C188.4,162.5,190.8,163.5,193.8,163.5z"/>
	<path class="st0" d="M222.5,129v7.4h6.5v4.1h-6.5v19.1c0,1.2,0.3,2.2,0.9,2.8c0.6,0.6,1.6,0.9,3,0.9c0.7,0,1.6-0.1,2.8-0.3v4.2
		c-1.6,0.4-3.1,0.6-4.6,0.6c-2.7,0-4.7-0.7-6-2.1c-1.4-1.4-2-3.4-2-6.1v-19.1h-6.4v-4.1h6.4V129H222.5z"/>
	<path class="st0" d="M250.5,167.8c-4.7,0-8.6-1.4-11.5-4.1c-3-2.7-4.5-6.4-4.5-11v-1c0-3.1,0.7-5.8,2-8.2c1.3-2.4,3.2-4.3,5.5-5.6
		c2.4-1.4,5-2,7.7-2c4.5,0,8.1,1.3,10.6,4c2.5,2.6,3.8,6.4,3.8,11.3v2.2h-23.6c0.1,3,1.1,5.5,3,7.3c1.9,1.9,4.4,2.8,7.3,2.8
		c2.1,0,3.9-0.4,5.4-1.1c1.5-0.8,2.7-1.8,3.8-3l3.6,2.5C260.7,165.8,256.3,167.8,250.5,167.8z M249.7,140.2c-2.4,0-4.4,0.8-6.1,2.3
		c-1.6,1.5-2.6,3.7-3,6.5h17.5v-0.4c-0.2-2.7-1-4.7-2.5-6.2C254.2,140.9,252.2,140.2,249.7,140.2z"/>
	<path class="st0" d="M279.1,129v7.4h6.5v4.1h-6.5v19.1c0,1.2,0.3,2.2,0.9,2.8c0.6,0.6,1.6,0.9,3,0.9c0.7,0,1.6-0.1,2.8-0.3v4.2
		c-1.6,0.4-3.1,0.6-4.6,0.6c-2.7,0-4.7-0.7-6-2.1c-1.4-1.4-2-3.4-2-6.1v-19.1h-6.4v-4.1h6.4V129H279.1z"/>
	<path class="st0" d="M3,237.1v-41.4h13.3c4.1,0,7.7,0.8,10.8,2.4c3.1,1.6,5.6,3.9,7.3,6.8c1.7,2.9,2.6,6.3,2.6,10.1v2.6
		c0,3.9-0.9,7.3-2.6,10.3c-1.7,2.9-4.2,5.2-7.3,6.8c-3.2,1.6-6.9,2.4-11.1,2.4H3z M9.2,200.2v32.5h6.5c4.8,0,8.5-1.3,11.1-3.9
		c2.7-2.6,4-6.3,4-11.2v-2.4c0-4.7-1.3-8.4-3.8-11c-2.5-2.6-6.1-3.9-10.7-4H9.2z"/>
	<path class="st0" d="M66.9,234.1c-2.3,2.4-5.7,3.6-10.2,3.6c-3.7,0-6.6-1-8.5-2.9c-1.9-1.9-2.9-4.7-3-8.5v-20h6v19.9
		c0,4.7,2.2,7,6.5,7c4.6,0,7.6-1.5,9.1-4.5v-22.4h6v30.8H67L66.9,234.1z"/>
	<path class="st0" d="M81.8,198.2c0-0.9,0.3-1.6,0.9-2.2c0.6-0.6,1.5-0.9,2.6-0.9c1.2,0,2,0.3,2.6,0.9c0.6,0.6,0.9,1.3,0.9,2.2
		s-0.3,1.6-0.9,2.1c-0.6,0.6-1.5,0.9-2.6,0.9c-1.2,0-2-0.3-2.6-0.9C82.1,199.7,81.8,199,81.8,198.2z M88.3,237.1h-6v-30.8h6V237.1z"
		/>
	<path class="st0" d="M118.1,228.9c0-1.4-0.6-2.5-1.8-3.3c-1.2-0.8-3.3-1.5-6.4-2c-3-0.6-5.4-1.3-7.2-2c-1.8-0.8-3.1-1.7-3.9-2.8
		c-0.9-1.1-1.3-2.4-1.3-3.9c0-2.5,1.2-4.7,3.6-6.4c2.4-1.7,5.5-2.6,9.3-2.6c4,0,7.2,0.9,9.6,2.7c2.5,1.8,3.7,4.1,3.7,6.9h-6
		c0-1.4-0.7-2.7-2.1-3.7c-1.4-1-3.1-1.6-5.2-1.6c-2.2,0-3.9,0.4-5.1,1.3c-1.2,0.8-1.8,1.9-1.8,3.3c0,1.3,0.6,2.2,1.7,2.9
		c1.1,0.6,3.2,1.3,6.2,1.8c3,0.6,5.4,1.3,7.2,2.1c1.8,0.8,3.2,1.8,4.1,2.9c0.9,1.1,1.3,2.5,1.3,4.2c0,2.7-1.2,5-3.7,6.6
		c-2.5,1.7-5.7,2.5-9.7,2.5c-2.8,0-5.3-0.4-7.4-1.3c-2.2-0.9-3.8-2.1-5-3.7c-1.2-1.6-1.8-3.3-1.8-5.1h6c0.1,1.8,0.9,3.2,2.4,4.2
		c1.5,1,3.5,1.5,5.9,1.5c2.3,0,4.1-0.4,5.4-1.2C117.5,231.4,118.1,230.3,118.1,228.9z"/>
	<path class="st0" d="M162.2,233.4c2.1,0,4-0.6,5.6-1.7c1.6-1.1,2.5-2.6,2.6-4.3h5.6c-0.1,1.8-0.8,3.4-2.1,5c-1.3,1.6-3,2.9-5.1,3.8
		c-2.1,0.9-4.4,1.4-6.7,1.4c-4.8,0-8.5-1.4-11.3-4.2c-2.8-2.8-4.2-6.6-4.2-11.5v-0.9c0-3,0.6-5.7,1.9-8c1.2-2.3,3-4.1,5.4-5.4
		c2.3-1.3,5.1-1.9,8.3-1.9c3.9,0,7.2,1,9.8,3.1c2.6,2.1,4,4.7,4.1,8h-5.6c-0.2-2-1-3.6-2.6-4.9c-1.5-1.3-3.4-1.9-5.7-1.9
		c-3,0-5.4,1-7,2.9c-1.7,1.9-2.5,4.7-2.5,8.3v1c0,3.5,0.8,6.3,2.5,8.2C156.8,232.4,159.2,233.4,162.2,233.4z"/>
	<path class="st0" d="M204.4,234.1c-2.3,2.4-5.7,3.6-10.2,3.6c-3.7,0-6.6-1-8.5-2.9c-1.9-1.9-2.9-4.7-3-8.5v-20h6v19.9
		c0,4.7,2.2,7,6.5,7c4.6,0,7.6-1.5,9.1-4.5v-22.4h6v30.8h-5.7L204.4,234.1z"/>
	<path class="st0" d="M224.9,206.3l0.2,3.4c2.6-2.7,6-4,10.4-4c4.9,0,8.2,1.6,10,4.9c1.2-1.5,2.7-2.7,4.5-3.6
		c1.9-0.9,4.1-1.4,6.6-1.4c7.7,0,11.5,3.6,11.7,10.7v20.6h-6v-20.3c0-2.2-0.6-3.8-1.7-4.9c-1.1-1.1-3.1-1.6-5.7-1.6
		c-2.2,0-4.1,0.6-5.5,1.7c-1.5,1.2-2.3,2.7-2.5,4.7v20.4h-6v-20.2c0-4.5-2.5-6.7-7.5-6.7c-3.9,0-6.6,1.5-8,4.4v22.5h-6v-30.8H224.9z
		"/>
	<path class="st0" d="M23.6,307c-0.3-0.6-0.6-1.7-0.8-3.2c-2.8,2.5-6.1,3.8-9.9,3.8c-3.4,0-6.3-0.9-8.5-2.6
		c-2.2-1.7-3.3-3.9-3.3-6.5c0-3.2,1.4-5.7,4.1-7.5s6.7-2.7,11.7-2.7h5.8v-2.4c0-1.8-0.6-3.3-1.9-4.4c-1.2-1.1-3.1-1.6-5.5-1.6
		c-2.1,0-3.9,0.5-5.4,1.4c-1.4,0.9-2.2,2.1-2.2,3.4h-6c0-1.5,0.6-3,1.9-4.5c1.2-1.4,2.9-2.6,5-3.4c2.1-0.8,4.4-1.3,7-1.3
		c4,0,7.2,0.9,9.5,2.7c2.3,1.8,3.5,4.2,3.5,7.3v14.2c0,2.8,0.4,5.1,1.2,6.7v0.5H23.6z M13.7,303c1.9,0,3.6-0.4,5.3-1.3
		c1.7-0.9,2.9-2,3.6-3.3V292H18c-7.3,0-11,1.9-11,5.7c0,1.6,0.6,2.9,1.9,3.9C10.1,302.5,11.7,303,13.7,303z"/>
	<path class="st0" d="M52,303.3c2.1,0,4-0.6,5.6-1.7c1.6-1.1,2.5-2.6,2.6-4.3h5.6c-0.1,1.8-0.8,3.4-2.1,5c-1.3,1.6-3,2.9-5.1,3.8
		c-2.1,0.9-4.4,1.4-6.7,1.4c-4.8,0-8.5-1.4-11.3-4.2c-2.8-2.8-4.2-6.6-4.2-11.5V291c0-3,0.6-5.7,1.9-8c1.2-2.3,3-4.1,5.4-5.4
		c2.3-1.3,5.1-1.9,8.3-1.9c3.9,0,7.2,1,9.8,3.1c2.6,2.1,4,4.7,4.1,8h-5.6c-0.2-2-1-3.6-2.6-4.9c-1.5-1.3-3.4-1.9-5.7-1.9
		c-3,0-5.4,1-7,2.9s-2.5,4.7-2.5,8.3v1c0,3.5,0.8,6.3,2.5,8.2C46.5,302.3,48.9,303.3,52,303.3z"/>
	<path class="st0" d="M118.4,291.9c0,4.7-1.2,8.5-3.6,11.3c-2.4,2.9-5.7,4.3-9.9,4.3c-4.2,0-7.6-1.2-10-3.6v14.8h-6v-42.6h5.5
		l0.3,3.4c2.4-2.7,5.8-4,10.1-4c4.2,0,7.5,1.4,10,4.2c2.4,2.8,3.7,6.7,3.7,11.6V291.9z M112.4,291.3c0-3.5-0.8-6.2-2.5-8.2
		c-1.7-2-4-3-6.9-3c-3.6,0-6.3,1.4-8.1,4.2V299c1.8,2.8,4.5,4.2,8.2,4.2c2.9,0,5.1-1,6.8-3C111.6,298.3,112.4,295.3,112.4,291.3z"/>
	<path class="st0" d="M124.4,291.3c0-3,0.7-5.7,2-8.1c1.3-2.4,3.2-4.3,5.6-5.6c2.4-1.3,5.1-2,8.2-2c4.8,0,8.6,1.4,11.5,4.4
		c2.9,2.9,4.4,6.8,4.4,11.6v0.4c0,3-0.7,5.7-2,8.1c-1.3,2.4-3.2,4.2-5.6,5.6c-2.4,1.3-5.2,2-8.3,2c-4.7,0-8.6-1.4-11.5-4.3
		c-2.9-2.9-4.4-6.7-4.4-11.5V291.3z M130.4,291.9c0,3.4,0.9,6.2,2.7,8.2c1.8,2.1,4.2,3.1,7.2,3.1c3,0,5.4-1,7.2-3.1
		c1.8-2.1,2.7-5,2.7-8.8c0-3.4-0.9-6.1-2.7-8.2c-1.8-2.1-4.2-3.1-7.2-3.1c-2.9,0-5.3,1-7.1,3.1S130.4,288.1,130.4,291.9z"/>
	<path class="st0" d="M184,298.8c0-1.4-0.6-2.5-1.8-3.3c-1.2-0.8-3.3-1.5-6.4-2c-3-0.6-5.4-1.3-7.2-2c-1.8-0.8-3.1-1.7-3.9-2.8
		c-0.9-1.1-1.3-2.4-1.3-3.9c0-2.5,1.2-4.7,3.6-6.4c2.4-1.7,5.5-2.6,9.3-2.6c4,0,7.2,0.9,9.6,2.7c2.5,1.8,3.7,4.1,3.7,6.9h-6
		c0-1.4-0.7-2.7-2.1-3.7c-1.4-1-3.1-1.6-5.2-1.6c-2.2,0-3.9,0.4-5.1,1.3c-1.2,0.8-1.8,1.9-1.8,3.3c0,1.3,0.6,2.2,1.7,2.9
		c1.1,0.6,3.2,1.3,6.2,1.8c3,0.6,5.4,1.3,7.2,2.1c1.8,0.8,3.2,1.8,4.1,2.9c0.9,1.1,1.3,2.5,1.3,4.2c0,2.7-1.2,5-3.7,6.6
		c-2.5,1.7-5.7,2.5-9.7,2.5c-2.8,0-5.3-0.4-7.4-1.3c-2.2-0.9-3.8-2.1-5-3.7c-1.2-1.6-1.8-3.3-1.8-5.1h6c0.1,1.8,0.9,3.2,2.4,4.2
		c1.5,1,3.5,1.5,5.9,1.5c2.3,0,4.1-0.4,5.4-1.2C183.3,301.2,184,300.2,184,298.8z"/>
	<path class="st0" d="M219.3,303.9c-2.3,2.4-5.7,3.6-10.2,3.6c-3.7,0-6.6-1-8.5-2.9c-1.9-1.9-2.9-4.7-3-8.5v-20h6v19.9
		c0,4.7,2.2,7,6.5,7c4.6,0,7.6-1.5,9.1-4.5v-22.4h6V307h-5.7L219.3,303.9z"/>
	<path class="st0" d="M248.6,307.5c-4.7,0-8.6-1.4-11.5-4.1c-3-2.7-4.5-6.4-4.5-11v-1c0-3.1,0.7-5.8,2-8.2s3.2-4.3,5.5-5.6
		c2.4-1.4,5-2,7.7-2c4.5,0,8.1,1.3,10.6,4c2.5,2.6,3.8,6.4,3.8,11.3v2.2h-23.6c0.1,3,1.1,5.5,3,7.4c1.9,1.9,4.4,2.8,7.3,2.8
		c2.1,0,3.9-0.4,5.4-1.1c1.5-0.8,2.7-1.8,3.8-3l3.6,2.5C258.9,305.6,254.5,307.5,248.6,307.5z M247.9,280c-2.4,0-4.4,0.8-6.1,2.3
		c-1.6,1.5-2.6,3.7-3,6.5h17.5v-0.4c-0.2-2.7-1-4.7-2.5-6.2C252.4,280.7,250.4,280,247.9,280z"/>
	<path class="st0" d="M286,280.9c-0.9-0.1-1.9-0.2-2.9-0.2c-3.9,0-6.6,1.5-8,4.4V307h-6v-30.8h5.8l0.1,3.6c2-2.7,4.7-4.1,8.3-4.1
		c1.2,0,2,0.1,2.6,0.4V280.9z"/>
	<path class="st0" d="M305.4,307.5c-4.7,0-8.6-1.4-11.5-4.1c-3-2.7-4.5-6.4-4.5-11v-1c0-3.1,0.7-5.8,2-8.2s3.2-4.3,5.5-5.6
		c2.4-1.4,5-2,7.7-2c4.5,0,8.1,1.3,10.6,4c2.5,2.6,3.8,6.4,3.8,11.3v2.2h-23.6c0.1,3,1.1,5.5,3,7.4c1.9,1.9,4.4,2.8,7.3,2.8
		c2.1,0,3.9-0.4,5.4-1.1c1.5-0.8,2.7-1.8,3.8-3l3.6,2.5C315.6,305.6,311.2,307.5,305.4,307.5z M304.6,280c-2.4,0-4.4,0.8-6.1,2.3
		c-1.6,1.5-2.6,3.7-3,6.5H313v-0.4c-0.2-2.7-1-4.7-2.5-6.2C309.1,280.7,307.1,280,304.6,280z"/>
</g>
</svg>
