<?xml version="1.0" encoding="utf-8"?>
<!-- Generator: Adobe Illustrator 26.1.0, SVG Export Plug-In . SVG Version: 6.00 Build 0)  -->
<svg version="1.1" id="Layer_1" xmlns="http://www.w3.org/2000/svg" xmlns:xlink="http://www.w3.org/1999/xlink" x="0px" y="0px"
	 viewBox="0 0 1000 1000" style="enable-background:new 0 0 1000 1000;" xml:space="preserve">
<style type="text/css">
	.st0{fill:#FFFFFF;}
	.st1{fill:#FFFFFF;stroke:#000000;stroke-width:20;stroke-linecap:round;stroke-linejoin:round;stroke-miterlimit:10;}
	.st2{font-family:'Rubik-SemiBold';}
	.st3{font-size:150px;}
	.st4{opacity:0.5;}
	.st5{font-family:'Rubik-Medium';}
	.st6{font-size:50px;}
</style>
<g>
	<circle class="st0" cx="156" cy="241" r="78"/>
	<path d="M156,173c37.5,0,68,30.5,68,68s-30.5,68-68,68s-68-30.5-68-68S118.5,173,156,173 M156,153c-48.6,0-88,39.4-88,88
		s39.4,88,88,88s88-39.4,88-88S204.6,153,156,153L156,153z"/>
</g>
<line class="st1" x1="156" y1="203.6" x2="156" y2="278.5"/>
<line class="st1" x1="193.5" y1="241" x2="118.5" y2="241"/>
<text transform="matrix(1 0 0 1 268.1998 295.8374)" class="st2 st3">PREVIEW</text>
<text transform="matrix(1 0 0 1 279.2222 395.5557)"><tspan x="0" y="0" class="st4 st5 st6">Lorem ipsum dolor sit</tspan><tspan x="0" y="60" class="st4 st5 st6">amet,consectetur</tspan><tspan x="0" y="120" class="st4 st5 st6">adipiscing elit. Sed pulvinar</tspan><tspan x="0" y="180" class="st4 st5 st6">fermentum vulputate. In</tspan><tspan x="0" y="240" class="st4 st5 st6">hac habitasse platea</tspan><tspan x="0" y="300" class="st4 st5 st6">dictumst. Orci varius</tspan><tspan x="0" y="360" class="st4 st5 st6">natoque penatibus et</tspan><tspan x="0" y="420" class="st4 st5 st6">magnis dis parturient</tspan><tspan x="0" y="480" class="st4 st5 st6">montes, nascetur.</tspan></text>
</svg>
