<?xml version="1.0" encoding="utf-8"?>
<!-- Generator: Adobe Illustrator 26.1.0, SVG Export Plug-In . SVG Version: 6.00 Build 0)  -->
<svg version="1.1" id="Layer_1" xmlns="http://www.w3.org/2000/svg" xmlns:xlink="http://www.w3.org/1999/xlink" x="0px" y="0px"
	 viewBox="0 0 1000 1000" style="enable-background:new 0 0 1000 1000;" xml:space="preserve">
<style type="text/css">
	.st0{fill:none;stroke:#000000;stroke-width:20;stroke-linecap:round;stroke-linejoin:round;stroke-miterlimit:10;}
</style>
<g>
	<path d="M917.7,342c11.2,0,20.3,9.1,20.3,20.3v233.4c0,11.2-9.1,20.3-20.3,20.3H87.3c-11.2,0-20.3-9.1-20.3-20.3V362.3
		c0-11.2,9.1-20.3,20.3-20.3H917.7 M917.7,322H87.3C65.1,322,47,340.1,47,362.3v233.4c0,22.3,18.1,40.3,40.3,40.3h830.4
		c22.3,0,40.3-18.1,40.3-40.3V362.3C958,340.1,939.9,322,917.7,322L917.7,322z"/>
</g>
<polyline class="st0" points="796,427 848,479 795.9,531.1 "/>
<g>
	<path d="M192.8,539.6c-9.3,0-17.2-1.6-23.6-4.9c-6.5-3.2-11.4-7.9-14.8-14c-3.4-6-5.3-13.3-5.7-21.8c-0.1-4.1-0.1-8.5-0.1-13.2
		c0-4.7,0-9.2,0.1-13.5c0.4-8.4,2.3-15.6,5.8-21.8c3.5-6.1,8.4-10.8,14.9-14c6.4-3.2,14.3-4.9,23.5-4.9c6.8,0,12.9,0.9,18.3,2.7
		c5.4,1.8,10,4.3,13.8,7.4c3.8,3.1,6.8,6.8,8.9,11c2.1,4.2,3.2,8.8,3.3,13.6c0.1,0.9-0.2,1.7-0.8,2.2c-0.7,0.6-1.4,0.9-2.3,0.9
		h-14.2c-1.1,0-2-0.3-2.7-0.8c-0.7-0.5-1.2-1.5-1.5-2.8c-1.6-6.6-4.4-11.1-8.2-13.5s-8.8-3.6-14.6-3.6c-6.7,0-12.1,1.9-16,5.6
		c-4,3.8-6.1,9.9-6.5,18.5c-0.3,8.2-0.3,16.6,0,25.2c0.3,8.6,2.4,14.8,6.5,18.5c4,3.8,9.3,5.6,16,5.6c5.8,0,10.7-1.2,14.6-3.7
		c3.9-2.4,6.7-6.9,8.2-13.4c0.3-1.4,0.8-2.3,1.5-2.9c0.7-0.5,1.6-0.8,2.7-0.8h14.2c0.9,0,1.7,0.3,2.3,0.9c0.6,0.6,0.9,1.3,0.8,2.2
		c-0.1,4.9-1.2,9.5-3.3,13.6c-2.1,4.2-5.1,7.9-8.9,11c-3.8,3.2-8.4,5.6-13.8,7.4S199.6,539.6,192.8,539.6z"/>
	<path d="M258.5,538.1c-1,0-1.9-0.3-2.5-1c-0.7-0.7-1-1.5-1-2.5v-97.8c0-1,0.3-1.8,1-2.6c0.7-0.7,1.5-1,2.5-1h14c1,0,1.8,0.4,2.5,1
		c0.7,0.7,1.1,1.6,1.1,2.6v83.6h47.5c1.1,0,2,0.4,2.7,1c0.7,0.7,1,1.6,1,2.7v10.5c0,1-0.4,1.9-1,2.5c-0.7,0.7-1.6,1-2.7,1H258.5z"/>
	<path d="M345.5,538.1c-1,0-1.9-0.3-2.5-1c-0.7-0.7-1-1.5-1-2.5v-97.8c0-1,0.3-1.8,1-2.6c0.7-0.7,1.5-1,2.5-1h14.1
		c1.1,0,2,0.4,2.6,1c0.6,0.7,1,1.6,1,2.6v97.8c0,1-0.3,1.9-1,2.5c-0.7,0.7-1.5,1-2.6,1H345.5z"/>
	<path d="M427.2,539.6c-9.3,0-17.2-1.6-23.6-4.9c-6.5-3.2-11.4-7.9-14.8-14c-3.4-6-5.3-13.3-5.7-21.8c-0.1-4.1-0.1-8.5-0.1-13.2
		c0-4.7,0-9.2,0.1-13.5c0.4-8.4,2.3-15.6,5.8-21.8c3.5-6.1,8.4-10.8,14.9-14c6.4-3.2,14.3-4.9,23.5-4.9c6.8,0,12.9,0.9,18.3,2.7
		c5.4,1.8,10,4.3,13.8,7.4s6.8,6.8,8.9,11c2.1,4.2,3.2,8.8,3.3,13.6c0.1,0.9-0.2,1.7-0.8,2.2c-0.7,0.6-1.4,0.9-2.3,0.9h-14.2
		c-1.1,0-2-0.3-2.7-0.8c-0.7-0.5-1.2-1.5-1.5-2.8c-1.6-6.6-4.4-11.1-8.2-13.5s-8.8-3.6-14.6-3.6c-6.7,0-12.1,1.9-16,5.6
		c-4,3.8-6.1,9.9-6.5,18.5c-0.3,8.2-0.3,16.6,0,25.2c0.3,8.6,2.4,14.8,6.5,18.5c4,3.8,9.3,5.6,16,5.6c5.8,0,10.7-1.2,14.6-3.7
		c3.9-2.4,6.7-6.9,8.2-13.4c0.3-1.4,0.8-2.3,1.5-2.9c0.7-0.5,1.6-0.8,2.7-0.8h14.2c0.9,0,1.7,0.3,2.3,0.9c0.6,0.6,0.9,1.3,0.8,2.2
		c-0.1,4.9-1.2,9.5-3.3,13.6c-2.1,4.2-5.1,7.9-8.9,11s-8.4,5.6-13.8,7.4C440.1,538.7,434,539.6,427.2,539.6z"/>
	<path d="M492.9,538.1c-1,0-1.9-0.3-2.5-1c-0.7-0.7-1-1.5-1-2.5v-97.7c0-1.1,0.3-2,1-2.7c0.7-0.7,1.5-1,2.5-1h13.2
		c1.1,0,2,0.4,2.7,1c0.7,0.7,1,1.6,1,2.7V472l33.9-36.1c0.4-0.5,1.1-1.1,2-1.7c0.9-0.6,2.2-1,3.8-1h14.8c0.8,0,1.5,0.3,2.2,0.9
		c0.6,0.6,1,1.4,1,2.2c0,0.7-0.2,1.3-0.6,1.8l-41.2,45.3l44.1,49.7c0.5,0.6,0.8,1.3,0.8,1.9c0,0.9-0.3,1.7-1,2.2
		c-0.7,0.6-1.4,0.9-2.2,0.9H552c-1.7,0-3-0.4-4-1.1c-1-0.8-1.6-1.3-1.9-1.6l-36.3-39.8v38.9c0,1-0.4,1.9-1,2.5c-0.7,0.7-1.6,1-2.7,1
		H492.9z"/>
</g>
</svg>
