<?xml version="1.0" encoding="utf-8"?>
<!-- Generator: Adobe Illustrator 26.1.0, SVG Export Plug-In . SVG Version: 6.00 Build 0)  -->
<svg version="1.1" xmlns="http://www.w3.org/2000/svg" xmlns:xlink="http://www.w3.org/1999/xlink" x="0px" y="0px"
	 viewBox="0 0 1000 1000" style="enable-background:new 0 0 1000 1000;" xml:space="preserve">
<style type="text/css">
	.st0{stroke:#000000;stroke-width:20;stroke-linecap:round;stroke-linejoin:round;stroke-miterlimit:10;}
	.st1{fill:none;stroke:#000000;stroke-width:20;stroke-linecap:round;stroke-linejoin:round;stroke-miterlimit:10;}
</style>
<g id="Layer_1">
	<g>
		<path d="M801.2,248.8c11.2,0,20.3,9.1,20.3,20.3v461c0,11.2-9.1,20.3-20.3,20.3H201.5c-11.2,0-20.3-9.1-20.3-20.3v-461
			c0-11.2,9.1-20.3,20.3-20.3H801.2 M801.2,228.8H201.5c-22.2,0-40.3,18-40.3,40.3v461c0,22.2,18,40.3,40.3,40.3h599.7
			c22.2,0,40.3-18,40.3-40.3v-461C841.5,246.9,823.5,228.8,801.2,228.8L801.2,228.8z"/>
	</g>
	<circle class="st0" cx="287" cy="323" r="41"/>
	<polygon class="st0" points="245.8,687.1 245.8,558.9 359.8,420 471.8,553.3 627.8,312.1 757,500.1 757,552.1 757,687.1 	"/>
	<polyline class="st1" points="900.2,447.8 952.2,499.9 900.2,551.9 	"/>
	<polyline class="st1" points="111.2,551.9 59.2,499.9 111.2,447.8 	"/>
</g>
<g id="Layer_2">
</g>
</svg>
