<?xml version="1.0" encoding="utf-8"?>
<!-- Generator: Adobe Illustrator 26.1.0, SVG Export Plug-In . SVG Version: 6.00 Build 0)  -->
<svg version="1.1" xmlns="http://www.w3.org/2000/svg" xmlns:xlink="http://www.w3.org/1999/xlink" x="0px" y="0px"
	 viewBox="0 0 1000 1000" style="enable-background:new 0 0 1000 1000;" xml:space="preserve">
<style type="text/css">
	.st0{fill:#FFFFFF;stroke:#000000;stroke-width:20;stroke-linecap:round;stroke-linejoin:round;stroke-miterlimit:10;}
</style>
<g id="Layer_1">
	<g>
		<path d="M869.4,198c11.2,0,20.3,9.1,20.3,20.3v650.8c0,11.2-9.1,20.3-20.3,20.3H131c-11.2,0-20.3-9.1-20.3-20.3V198H869.4
			 M869.4,178H90.7v691.1c0,22.2,18,40.3,40.3,40.3h738.4c22.2,0,40.3-18,40.3-40.3V218.3C909.7,196,891.7,178,869.4,178L869.4,178z
			"/>
	</g>
</g>
<g id="Layer_3">
	<g>
		<path d="M342.2,116c11.2,0,20.3,9.1,20.3,20.3v41.3H247v-41.3c0-11.2,9.1-20.3,20.3-20.3H342.2 M342.2,96h-74.9
			c-22.2,0-40.3,18-40.3,40.3v61.3h155.5v-61.3C382.5,114,364.5,96,342.2,96L342.2,96z"/>
	</g>
	<g>
		<path d="M100.7,187.7v-51.3c0-16.7,13.6-30.3,30.3-30.3h74.9c16.7,0,30.3,13.6,30.3,30.3v51.3H100.7z"/>
		<path d="M205.9,116c11.2,0,20.3,9.1,20.3,20.3v41.3H110.7v-41.3c0-11.2,9.1-20.3,20.3-20.3H205.9 M205.9,96H131
			c-22.2,0-40.3,18-40.3,40.3v61.3h155.5v-61.3C246.2,114.1,228.2,96,205.9,96L205.9,96z"/>
	</g>
	<g>
		<path d="M477.7,116.3c11.2,0,20.3,9.1,20.3,20.3v41.3H382.5v-41.3c0-11.2,9.1-20.3,20.3-20.3H477.7 M477.7,96.3h-74.9
			c-22.2,0-40.3,18-40.3,40.3v61.3H518v-61.3C518,114.3,500,96.3,477.7,96.3L477.7,96.3z"/>
	</g>
</g>
<g id="Layer_2">
	<line class="st0" x1="177.4" y1="321.5" x2="822.4" y2="321.5"/>
	<line class="st0" x1="177.4" y1="404" x2="607.8" y2="404"/>
	<line class="st0" x1="177.4" y1="486.5" x2="762.4" y2="486.5"/>
	<line class="st0" x1="177.4" y1="569" x2="700.2" y2="569"/>
	<line class="st0" x1="177.4" y1="651.5" x2="822.4" y2="651.5"/>
	<line class="st0" x1="177" y1="734" x2="518" y2="734"/>
</g>
</svg>
